<?xml version="1.0" encoding="UTF-8" standalone="no"?>
<!-- Created with Inkscape (http://www.inkscape.org/) -->

<svg
   xmlns:dc="http://purl.org/dc/elements/1.1/"
   xmlns:cc="http://creativecommons.org/ns#"
   xmlns:rdf="http://www.w3.org/1999/02/22-rdf-syntax-ns#"
   xmlns:svg="http://www.w3.org/2000/svg"
   xmlns="http://www.w3.org/2000/svg"
   xmlns:sodipodi="http://sodipodi.sourceforge.net/DTD/sodipodi-0.dtd"
   xmlns:inkscape="http://www.inkscape.org/namespaces/inkscape"
   id="svg2"
   version="1.1"
   inkscape:version="0.91 r13725"
   xml:space="preserve"
   width="200"
   height="160"
   viewBox="0 0 200 160"
   sodipodi:docname="doubleHump_new3.svg"><metadata
     id="metadata8"><rdf:RDF><cc:Work
         rdf:about=""><dc:format>image/svg+xml</dc:format><dc:type
           rdf:resource="http://purl.org/dc/dcmitype/StillImage" /><dc:title /></cc:Work></rdf:RDF></metadata><defs
     id="defs6"><clipPath
       clipPathUnits="userSpaceOnUse"
       id="clipPath54"><path
         d="m 22.699,128 133.469,0 0,-128 -133.469,0 0,128 z"
         id="path56"
         inkscape:connector-curvature="0" /></clipPath><clipPath
       clipPathUnits="userSpaceOnUse"
       id="clipPath64"><path
         d="m 36,17 119,0 0,94 -119,0 0,-94 z"
         id="path66"
         inkscape:connector-curvature="0" /></clipPath><clipPath
       clipPathUnits="userSpaceOnUse"
       id="clipPath74"><path
         d="m 36,111 119,0 0,-94 -119,0 0,94 z"
         id="path76"
         inkscape:connector-curvature="0" /></clipPath><clipPath
       clipPathUnits="userSpaceOnUse"
       id="clipPath84"><path
         d="m 36,17 119,0 0,94 -119,0 0,-94 z"
         id="path86"
         inkscape:connector-curvature="0" /></clipPath></defs><sodipodi:namedview
     pagecolor="#ffffff"
     bordercolor="#666666"
     borderopacity="1"
     objecttolerance="10"
     gridtolerance="10"
     guidetolerance="10"
     inkscape:pageopacity="0"
     inkscape:pageshadow="2"
     inkscape:window-width="1918"
     inkscape:window-height="1024"
     id="namedview4"
     showgrid="false"
     inkscape:zoom="1.475"
     inkscape:cx="-112.88136"
     inkscape:cy="80"
     inkscape:window-x="0"
     inkscape:window-y="36"
     inkscape:window-maximized="0"
     inkscape:current-layer="g10" /><g
     id="g10"
     inkscape:groupmode="layer"
     inkscape:label="doubleHump_new3"
     transform="matrix(1.25,0,0,-1.25,0,160)"><g
       id="g12"><path
         d="m 8.203,122.016 13.57,0 0,-109.801 -13.57,0 0,109.801 z"
         style="fill:#ffffff;fill-opacity:1;fill-rule:nonzero;stroke:none"
         id="path14"
         inkscape:connector-curvature="0" /><text
         transform="matrix(1,0,0,-0.8870744,11.88316,117.35997)"
         style="font-variant:normal;font-weight:bold;font-size:5.09637308px;font-family:'DejaVu Sans';-inkscape-font-specification:DejaVuSans-Bold;writing-mode:lr-tb;fill:#555555;fill-opacity:1;fill-rule:nonzero;stroke:none"
         id="text16"><tspan
           x="0 3.5419793 7.0839586"
           y="0"
           sodipodi:role="line"
           id="tspan18">400</tspan><tspan
           x="-0.14930794 3.3926713 6.9346504"
           y="29.400904"
           sodipodi:role="line"
           id="tspan20">300</tspan><tspan
           x="-0.2322565 3.3097227 6.8517017"
           y="56.992634"
           sodipodi:role="line"
           id="tspan22">200</tspan><tspan
           x="-0.46119475 3.0807846 6.6227636"
           y="85.734016"
           sodipodi:role="line"
           id="tspan24">100</tspan><tspan
           x="7.4588442"
           y="114.09219"
           id="tspan26">0</tspan></text>
<path
         d="m 11.184,11.477 161.133,0 0,-9.488 -161.133,0 0,9.488 z"
         style="fill:#ffffff;fill-opacity:1;fill-rule:nonzero;stroke:none"
         id="path28"
         inkscape:connector-curvature="0" /><path
         d="m 6.32,119.969 2.711,0 0,-33.539 -2.711,0 0,33.539 z"
         style="fill:#ffffff;fill-opacity:1;fill-rule:nonzero;stroke:none"
         id="path30"
         inkscape:connector-curvature="0" /><path
         d="m 6.965,81.27 3.355,0 0,-19.223 -3.355,0 0,19.223 z"
         style="fill:#ffffff;fill-opacity:1;fill-rule:nonzero;stroke:none"
         id="path32"
         inkscape:connector-curvature="0" /><text
         transform="matrix(1,0,0,-1,86.751587,11.759456)"
         style="font-variant:normal;font-weight:bold;font-size:4.80000019px;font-family:'DejaVu Sans';-inkscape-font-specification:DejaVuSans-Bold;writing-mode:lr-tb;fill:#555555;fill-opacity:1;fill-rule:nonzero;stroke:none"
         id="text34"><tspan
           x="0"
           y="0"
           id="tspan36">2</tspan><tspan
           x="-51.858288 -48.522289 -46.703087"
           y="-0.090623997"
           sodipodi:role="line"
           id="tspan38">0.5</tspan><tspan
           x="-32.821465"
           y="0"
           id="tspan40">1</tspan><tspan
           x="-19.903612 -16.567614 -14.748413 10.312387 11.982787 15.318788 17.137987 32.689987 45.592388 48.928387 50.747585"
           y="-0.090623997"
           sodipodi:role="line"
           id="tspan42">1.5 2.533.5</tspan><tspan
           x="65.42215"
           y="0"
           id="tspan44">4</tspan><tspan
           x="-65.770966"
           y="-0.090623997"
           id="tspan46">0</tspan></text>
<path
         d="m 24.18,118.789 129.703,0 0,-101.762 -129.703,0 0,101.762 z"
         style="fill:#e5e5e5;fill-opacity:1;fill-rule:nonzero;stroke:none"
         id="path48"
         inkscape:connector-curvature="0" /></g><g
       id="g58"><g
         id="g60"><g
           id="g62"
           clip-path="url(#clipPath64)"><g
             id="g68" /><g
             id="g70"><g
               id="g72"
               clip-path="url(#clipPath74)"><g
                 id="g78"><g
                   id="g80"><g
                     id="g82"
                     clip-path="url(#clipPath84)"><g
                       id="g88"><path
                         d="m 36.84,18.008 11.683,0.824 3.989,0.688 4.535,1.238 7.148,2.472 5.5,2.75 6.047,2.887 4.676,2.887 5.496,2.887 5.91,3.3 9.074,3.711 7.422,3.438 3.989,2.472 3.437,3.024 3.16,3.301 2.614,3.023 3.16,4.672 2.199,3.715 2.062,3.848 1.922,4.535 1.789,4.261 1.649,4.262 1.511,4.399 1.102,2.476 1.098,2.887 0.965,3.023 1.097,2.887 0.688,1.785 0.965,1.649 1.511,3.164 1.922,2.886 2.613,2.063 1.239,0.41 2.062,-1.234 1.512,-2.614 1.234,-2.75"
                         style="fill:none;stroke:#d83400;stroke-width:0.80000001;stroke-linecap:butt;stroke-linejoin:miter;stroke-miterlimit:4;stroke-dasharray:none;stroke-opacity:1"
                         id="path90"
                         inkscape:connector-curvature="0" /></g></g></g></g></g></g></g></g></g><text
       xml:space="preserve"
       style="font-style:normal;font-weight:normal;font-size:32px;line-height:125%;font-family:Sans;letter-spacing:0.616px;word-spacing:0px;fill:#000000;fill-opacity:1;stroke:none;stroke-width:1px;stroke-linecap:butt;stroke-linejoin:miter;stroke-opacity:1"
       x="59.389431"
       y="8.9556456"
       id="text4255"
       sodipodi:linespacing="125%"
       transform="matrix(0.00513496,0.99998682,0.99998682,-0.00513496,0,0)"><tspan
         sodipodi:role="line"
         id="tspan4257"
         x="59.389431"
         y="8.9556456"
         style="font-style:normal;font-variant:normal;font-weight:bold;font-stretch:normal;font-size:4px;font-family:'DejaVu Sans';-inkscape-font-specification:'DejaVu Sans Bold';fill:#555555;fill-opacity:1">Counts</tspan></text>
<text
       xml:space="preserve"
       style="font-style:normal;font-weight:normal;font-size:32px;line-height:125%;font-family:Sans;letter-spacing:0.616px;word-spacing:0px;fill:#000000;fill-opacity:1;stroke:none;stroke-width:1px;stroke-linecap:butt;stroke-linejoin:miter;stroke-opacity:1"
       x="79.18644"
       y="-5.4237323"
       id="text4259"
       sodipodi:linespacing="125%"
       transform="scale(1,-1)"><tspan
         sodipodi:role="line"
         id="tspan4261"
         x="79.18644"
         y="-5.4237323"
         style="font-style:normal;font-variant:normal;font-weight:bold;font-stretch:normal;font-size:4px;font-family:'DejaVu Sans';-inkscape-font-specification:'DejaVu Sans Bold';fill:#555555;fill-opacity:1">QS</tspan></text>
</g></svg>