<?xml version="1.0" encoding="utf-8" standalone="no"?>
<!DOCTYPE svg PUBLIC "-//W3C//DTD SVG 1.1//EN"
  "http://www.w3.org/Graphics/SVG/1.1/DTD/svg11.dtd">
<!-- Created with matplotlib (http://matplotlib.org/) -->
<svg height="864pt" version="1.1" viewBox="0 0 864 864" width="864pt" xmlns="http://www.w3.org/2000/svg" xmlns:xlink="http://www.w3.org/1999/xlink">
 <defs>
  <style type="text/css">
*{stroke-linecap:butt;stroke-linejoin:round;}
  </style>
 </defs>
 <g id="figure_1">
  <g id="patch_1">
   <path d="
M0 864
L864 864
L864 0
L0 0
z
" style="fill:#ffffff;"/>
  </g>
  <g id="axes_1">
   <g id="matplotlib.axis_1"/>
   <g id="matplotlib.axis_2"/>
   <g id="patch_2">
    <path d="
M710.64 421.2
C710.64 376.303 699.351 332.118 677.815 292.723
C656.278 253.328 625.179 219.973 587.385 195.737
L442.8 421.2
L710.64 421.2
z
" style="fill:#1b9e77;stroke:#eeeeee;stroke-linejoin:miter;stroke-width:0.5;"/>
   </g>
   <g id="patch_3">
    <path d="
M587.385 195.737
C533.822 161.388 469.733 147.226 406.684 155.806
C343.635 164.386 285.661 195.159 243.224 242.572
L442.8 421.2
L587.385 195.737
z
" style="fill:#d95f02;stroke:#eeeeee;stroke-linejoin:miter;stroke-width:0.5;"/>
   </g>
   <g id="patch_4">
    <path d="
M243.224 242.572
C231.73 255.414 221.502 269.336 212.683 284.143
C203.864 298.951 196.495 314.575 190.678 330.798
L442.8 421.2
L243.224 242.572
z
" style="fill:#7570b3;stroke:#eeeeee;stroke-linejoin:miter;stroke-width:0.5;"/>
   </g>
   <g id="patch_5">
    <path d="
M190.678 330.798
C184.466 348.122 180.056 366.04 177.518 384.268
C174.981 402.496 174.329 420.938 175.572 439.299
L442.8 421.2
L190.678 330.798
z
" style="fill:#e7298a;stroke:#eeeeee;stroke-linejoin:miter;stroke-width:0.5;"/>
   </g>
   <g id="patch_6">
    <path d="
M175.572 439.299
C175.762 442.106 175.997 444.91 176.275 447.709
C176.553 450.508 176.876 453.303 177.242 456.092
L442.8 421.2
L175.572 439.299
z
" style="fill:#66a61e;stroke:#eeeeee;stroke-linejoin:miter;stroke-width:0.5;"/>
   </g>
   <g id="patch_7">
    <path d="
M177.242 456.092
C177.305 456.568 177.369 457.044 177.434 457.52
C177.499 457.996 177.566 458.472 177.633 458.947
L442.8 421.2
L177.242 456.092
z
" style="fill:#e6ab02;stroke:#eeeeee;stroke-linejoin:miter;stroke-width:0.5;"/>
   </g>
   <g id="patch_8">
    <path d="
M177.633 458.947
C185.627 515.103 211.257 567.294 250.807 607.954
C290.357 648.613 341.819 675.677 397.732 685.221
L442.8 421.2
L177.633 458.947
z
" style="fill:#a6761d;stroke:#eeeeee;stroke-linejoin:miter;stroke-width:0.5;"/>
   </g>
   <g id="patch_9">
    <path d="
M397.732 685.221
C404.429 686.364 411.166 687.252 417.93 687.883
C424.694 688.514 431.48 688.887 438.272 689.002
L442.8 421.2
L397.732 685.221
z
" style="fill:#1b9e77;stroke:#eeeeee;stroke-linejoin:miter;stroke-width:0.5;"/>
   </g>
   <g id="patch_10">
    <path d="
M438.272 689.002
C440.33 689.037 442.388 689.048 444.447 689.035
C446.505 689.022 448.563 688.986 450.621 688.926
L442.8 421.2
L438.272 689.002
z
" style="fill:#d95f02;stroke:#eeeeee;stroke-linejoin:miter;stroke-width:0.5;"/>
   </g>
   <g id="patch_11">
    <path d="
M450.621 688.926
C520.247 686.892 586.406 657.775 634.937 607.806
C683.467 557.837 710.64 490.857 710.64 421.2
L442.8 421.2
L450.621 688.926
z
" style="fill:#7570b3;stroke:#eeeeee;stroke-linejoin:miter;stroke-width:0.5;"/>
   </g>
   <g id="text_1">
    <!-- Argentina -->
    <defs>
     <path d="
M20.3125 0
L6.59375 0
L6.59375 51.8594
L19.3438 51.8594
L19.3438 44.4844
Q22.6094 49.7031 25.2188 51.3594
Q27.8281 53.0312 31.1562 53.0312
Q35.8438 53.0312 40.1875 50.4375
L35.9375 38.4844
Q32.4688 40.7188 29.5 40.7188
Q26.6094 40.7188 24.6094 39.125
Q22.6094 37.5469 21.4531 33.3906
Q20.3125 29.25 20.3125 16.0156
z
" id="Arial-BoldMT-72"/>
     <path d="
M37.2031 16.5
L50.875 14.2031
Q48.25 6.6875 42.5469 2.75
Q36.8594 -1.17188 28.3281 -1.17188
Q14.7969 -1.17188 8.29688 7.67188
Q3.17188 14.75 3.17188 25.5312
Q3.17188 38.4219 9.90625 45.7188
Q16.6562 53.0312 26.9531 53.0312
Q38.5312 53.0312 45.2188 45.3906
Q51.9062 37.75 51.6094 21.9688
L17.2344 21.9688
Q17.3906 15.875 20.5625 12.4688
Q23.7344 9.07812 28.4688 9.07812
Q31.6875 9.07812 33.875 10.8281
Q36.0781 12.5938 37.2031 16.5
M37.9844 30.375
Q37.8438 36.3281 34.9062 39.4219
Q31.9844 42.5312 27.7812 42.5312
Q23.2969 42.5312 20.3594 39.2656
Q17.4375 35.9844 17.4844 30.375
z
" id="Arial-BoldMT-65"/>
     <path d="
M17.4375 36.0312
L4.98438 38.2812
Q7.07812 45.7969 12.2031 49.4062
Q17.3281 53.0312 27.4375 53.0312
Q36.625 53.0312 41.1094 50.8594
Q45.6094 48.6875 47.4375 45.3438
Q49.2656 42 49.2656 33.0625
L49.125 17.0469
Q49.125 10.2031 49.7812 6.95312
Q50.4375 3.71875 52.25 0
L38.6719 0
Q38.1406 1.375 37.3594 4.04688
Q37.0156 5.28125 36.8594 5.67188
Q33.3438 2.25 29.3438 0.53125
Q25.3438 -1.17188 20.7969 -1.17188
Q12.7969 -1.17188 8.17188 3.17188
Q3.5625 7.51562 3.5625 14.1562
Q3.5625 18.5625 5.65625 22
Q7.76562 25.4375 11.5469 27.2656
Q15.3281 29.1094 22.4688 30.4688
Q32.0781 32.2812 35.7969 33.8438
L35.7969 35.2031
Q35.7969 39.1562 33.8438 40.8438
Q31.8906 42.5312 26.4688 42.5312
Q22.7969 42.5312 20.75 41.0938
Q18.7031 39.6562 17.4375 36.0312
M35.7969 24.9062
Q33.1562 24.0312 27.4375 22.7969
Q21.7344 21.5781 19.9688 20.4062
Q17.2812 18.5 17.2812 15.5781
Q17.2812 12.7031 19.4219 10.5938
Q21.5781 8.5 24.9062 8.5
Q28.6094 8.5 31.9844 10.9375
Q34.4688 12.7969 35.25 15.4844
Q35.7969 17.2344 35.7969 22.1719
z
" id="Arial-BoldMT-61"/>
     <path d="
M30.9531 51.8594
L30.9531 40.9219
L21.5781 40.9219
L21.5781 20.0156
Q21.5781 13.6719 21.8438 12.625
Q22.125 11.5781 23.0781 10.8906
Q24.0312 10.2031 25.3906 10.2031
Q27.2969 10.2031 30.9062 11.5312
L32.0781 0.875
Q27.2969 -1.17188 21.2344 -1.17188
Q17.5312 -1.17188 14.5469 0.0625
Q11.5781 1.3125 10.1875 3.29688
Q8.79688 5.28125 8.25 8.64062
Q7.8125 11.0312 7.8125 18.3125
L7.8125 40.9219
L1.51562 40.9219
L1.51562 51.8594
L7.8125 51.8594
L7.8125 62.1562
L21.5781 70.1719
L21.5781 51.8594
z
" id="Arial-BoldMT-74"/>
     <path d="
M7.17188 58.8906
L7.17188 71.5781
L20.9062 71.5781
L20.9062 58.8906
z

M7.17188 0
L7.17188 51.8594
L20.9062 51.8594
L20.9062 0
z
" id="Arial-BoldMT-69"/>
     <path d="
M5.90625 -3.42188
L21.5781 -5.32812
Q21.9688 -8.0625 23.3906 -9.07812
Q25.3438 -10.5469 29.5469 -10.5469
Q34.9062 -10.5469 37.5938 -8.9375
Q39.4062 -7.85938 40.3281 -5.46875
Q40.9688 -3.76562 40.9688 0.828125
L40.9688 8.40625
Q34.8125 0 25.4375 0
Q14.9844 0 8.89062 8.84375
Q4.10938 15.8281 4.10938 26.2188
Q4.10938 39.2656 10.375 46.1406
Q16.6562 53.0312 25.9844 53.0312
Q35.5938 53.0312 41.8438 44.5781
L41.8438 51.8594
L54.6875 51.8594
L54.6875 5.32812
Q54.6875 -3.85938 53.1719 -8.39062
Q51.6562 -12.9375 48.9219 -15.5156
Q46.1875 -18.1094 41.625 -19.5781
Q37.0625 -21.0469 30.0781 -21.0469
Q16.8906 -21.0469 11.375 -16.5312
Q5.85938 -12.0156 5.85938 -5.07812
Q5.85938 -4.39062 5.90625 -3.42188
M18.1719 27
Q18.1719 18.75 21.3594 14.9062
Q24.5625 11.0781 29.25 11.0781
Q34.2812 11.0781 37.75 15.0156
Q41.2188 18.9531 41.2188 26.6562
Q41.2188 34.7188 37.8906 38.625
Q34.5781 42.5312 29.5 42.5312
Q24.5625 42.5312 21.3594 38.6875
Q18.1719 34.8594 18.1719 27" id="Arial-BoldMT-67"/>
     <path d="
M54.3438 0
L40.625 0
L40.625 26.4688
Q40.625 34.8594 39.75 37.3281
Q38.875 39.7969 36.8906 41.1562
Q34.9062 42.5312 32.125 42.5312
Q28.5625 42.5312 25.7344 40.5781
Q22.9062 38.625 21.8438 35.3906
Q20.7969 32.1719 20.7969 23.4844
L20.7969 0
L7.07812 0
L7.07812 51.8594
L19.8281 51.8594
L19.8281 44.2344
Q26.6094 53.0312 36.9219 53.0312
Q41.4531 53.0312 45.2031 51.3906
Q48.9688 49.75 50.8906 47.2031
Q52.8281 44.6719 53.5781 41.4531
Q54.3438 38.2344 54.3438 32.2344
z
" id="Arial-BoldMT-6e"/>
     <path d="
M71.8281 0
L56.1094 0
L49.8594 16.2656
L21.2344 16.2656
L15.3281 0
L0 0
L27.875 71.5781
L43.1719 71.5781
z

M45.2188 28.3281
L35.3594 54.8906
L25.6875 28.3281
z
" id="Arial-BoldMT-41"/>
    </defs>
    <g style="fill:#262626;" transform="translate(701.316210576 283.665145818)scale(0.15 -0.15)">
     <use xlink:href="#Arial-BoldMT-41"/>
     <use x="72.216796875" xlink:href="#Arial-BoldMT-72"/>
     <use x="111.1328125" xlink:href="#Arial-BoldMT-67"/>
     <use x="172.216796875" xlink:href="#Arial-BoldMT-65"/>
     <use x="227.83203125" xlink:href="#Arial-BoldMT-6e"/>
     <use x="288.916015625" xlink:href="#Arial-BoldMT-74"/>
     <use x="322.216796875" xlink:href="#Arial-BoldMT-69"/>
     <use x="350.0" xlink:href="#Arial-BoldMT-6e"/>
     <use x="411.083984375" xlink:href="#Arial-BoldMT-61"/>
    </g>
   </g>
   <g id="text_2">
    <!-- 15.9% -->
    <defs>
     <path d="
M7.17188 0
L7.17188 13.7188
L20.9062 13.7188
L20.9062 0
z
" id="Arial-BoldMT-2e"/>
     <path d="
M4.4375 18.4062
L18.1094 19.8281
Q18.7031 15.1875 21.5781 12.4688
Q24.4688 9.76562 28.2188 9.76562
Q32.5156 9.76562 35.5 13.25
Q38.4844 16.75 38.4844 23.7812
Q38.4844 30.375 35.5156 33.6719
Q32.5625 36.9688 27.8281 36.9688
Q21.9219 36.9688 17.2344 31.7344
L6.10938 33.3438
L13.1406 70.6094
L49.4219 70.6094
L49.4219 57.7656
L23.5312 57.7656
L21.3906 45.6094
Q25.9844 47.9062 30.7656 47.9062
Q39.8906 47.9062 46.2344 41.2656
Q52.5938 34.625 52.5938 24.0312
Q52.5938 15.1875 47.4688 8.25
Q40.4844 -1.21875 28.0781 -1.21875
Q18.1719 -1.21875 11.9219 4.09375
Q5.67188 9.42188 4.4375 18.4062" id="Arial-BoldMT-35"/>
     <path d="
M4.54688 16.5469
L17.8281 18.0156
Q18.3125 13.9688 20.3594 12.0156
Q22.4062 10.0625 25.7812 10.0625
Q30.0312 10.0625 33 13.9688
Q35.9844 17.875 36.8125 30.1719
Q31.6406 24.1719 23.875 24.1719
Q15.4375 24.1719 9.29688 30.6875
Q3.17188 37.2031 3.17188 47.6562
Q3.17188 58.5469 9.64062 65.2031
Q16.1094 71.875 26.125 71.875
Q37.0156 71.875 44 63.4531
Q50.9844 55.0312 50.9844 35.75
Q50.9844 16.1094 43.7031 7.42188
Q36.4219 -1.26562 24.75 -1.26562
Q16.3594 -1.26562 11.1719 3.20312
Q6 7.67188 4.54688 16.5469
M35.5938 46.5312
Q35.5938 53.1719 32.5469 56.8281
Q29.5 60.5 25.4844 60.5
Q21.6875 60.5 19.1719 57.5
Q16.6562 54.5 16.6562 47.6562
Q16.6562 40.7188 19.3906 37.4688
Q22.125 34.2344 26.2188 34.2344
Q30.1719 34.2344 32.875 37.3594
Q35.5938 40.4844 35.5938 46.5312" id="Arial-BoldMT-39"/>
     <path d="
M39.3594 0
L25.6406 0
L25.6406 51.7031
Q18.1094 44.6719 7.90625 41.3125
L7.90625 53.7656
Q13.2812 55.5156 19.5781 60.4219
Q25.875 65.3281 28.2188 71.875
L39.3594 71.875
z
" id="Arial-BoldMT-31"/>
     <path d="
M4.34375 53.9062
Q4.34375 63.5312 8.5625 68.1562
Q12.7969 72.7969 20.0156 72.7969
Q27.4844 72.7969 31.7031 68.1875
Q35.9375 63.5781 35.9375 53.9062
Q35.9375 44.2812 31.7031 39.6406
Q27.4844 35.0156 20.2656 35.0156
Q12.7969 35.0156 8.5625 39.625
Q4.34375 44.2344 4.34375 53.9062
M15.0469 54
Q15.0469 47.0156 16.6562 44.625
Q17.875 42.875 20.0156 42.875
Q22.2188 42.875 23.4375 44.625
Q25 47.0156 25 54
Q25 60.9844 23.4375 63.3281
Q22.2188 65.1406 20.0156 65.1406
Q17.875 65.1406 16.6562 63.375
Q15.0469 60.9844 15.0469 54
M30.4688 -2.73438
L20.3125 -2.73438
L58.4531 72.7969
L68.3125 72.7969
z

M52.6406 16.0625
Q52.6406 25.6875 56.8594 30.3281
Q61.0781 34.9688 68.4062 34.9688
Q75.7812 34.9688 80 30.3281
Q84.2344 25.6875 84.2344 16.0625
Q84.2344 6.39062 80 1.75
Q75.7812 -2.875 68.5625 -2.875
Q61.0781 -2.875 56.8594 1.75
Q52.6406 6.39062 52.6406 16.0625
M63.3281 16.1094
Q63.3281 9.125 64.9375 6.78125
Q66.1562 4.98438 68.3125 4.98438
Q70.5156 4.98438 71.6875 6.73438
Q73.2969 9.125 73.2969 16.1094
Q73.2969 23.0938 71.7344 25.4844
Q70.5156 27.25 68.3125 27.25
Q66.1094 27.25 64.9375 25.4844
Q63.3281 23.0938 63.3281 16.1094" id="Arial-BoldMT-25"/>
    </defs>
    <g style="fill:#262626;" transform="translate(563.488529632 348.002082378)scale(0.15 -0.15)">
     <use xlink:href="#Arial-BoldMT-31"/>
     <use x="55.615234375" xlink:href="#Arial-BoldMT-35"/>
     <use x="111.23046875" xlink:href="#Arial-BoldMT-2e"/>
     <use x="139.013671875" xlink:href="#Arial-BoldMT-39"/>
     <use x="194.62890625" xlink:href="#Arial-BoldMT-25"/>
    </g>
   </g>
   <g id="text_3">
    <!-- Brazil -->
    <defs>
     <path d="
M7.32812 71.5781
L35.9375 71.5781
Q44.4375 71.5781 48.6094 70.875
Q52.7812 70.1719 56.0781 67.9219
Q59.375 65.6719 61.5625 61.9375
Q63.7656 58.2031 63.7656 53.5625
Q63.7656 48.5312 61.0469 44.3281
Q58.3438 40.1406 53.7188 38.0312
Q60.25 36.1406 63.7656 31.5469
Q67.2812 26.9531 67.2812 20.75
Q67.2812 15.875 65.0156 11.25
Q62.75 6.64062 58.8125 3.875
Q54.8906 1.125 49.125 0.484375
Q45.5156 0.09375 31.6875 0
L7.32812 0
z

M21.7812 59.6719
L21.7812 43.1094
L31.25 43.1094
Q39.7031 43.1094 41.75 43.3594
Q45.4531 43.7969 47.5781 45.9219
Q49.7031 48.0469 49.7031 51.5156
Q49.7031 54.8281 47.875 56.9062
Q46.0469 58.9844 42.4375 59.4219
Q40.2812 59.6719 30.0781 59.6719
z

M21.7812 31.2031
L21.7812 12.0625
L35.1562 12.0625
Q42.9688 12.0625 45.0625 12.5
Q48.2969 13.0938 50.3125 15.3594
Q52.3438 17.625 52.3438 21.4375
Q52.3438 24.6562 50.7812 26.9062
Q49.2188 29.1562 46.2656 30.1719
Q43.3125 31.2031 33.4531 31.2031
z
" id="Arial-BoldMT-42"/>
     <path d="
M1.65625 0
L1.65625 10.6875
L21.0938 33.0156
Q25.875 38.4844 28.1719 40.7656
Q25.7812 40.625 21.875 40.5781
L3.5625 40.4844
L3.5625 51.8594
L46.4375 51.8594
L46.4375 42.1406
L26.6094 19.2812
L19.625 11.7188
Q25.3438 12.0625 26.7031 12.0625
L47.9531 12.0625
L47.9531 0
z
" id="Arial-BoldMT-7a"/>
     <path d="
M7.17188 0
L7.17188 71.5781
L20.9062 71.5781
L20.9062 0
z
" id="Arial-BoldMT-6c"/>
    </defs>
    <g style="fill:#262626;" transform="translate(364.355766319 133.15506782)scale(0.15 -0.15)">
     <use xlink:href="#Arial-BoldMT-42"/>
     <use x="72.216796875" xlink:href="#Arial-BoldMT-72"/>
     <use x="111.1328125" xlink:href="#Arial-BoldMT-61"/>
     <use x="166.748046875" xlink:href="#Arial-BoldMT-7a"/>
     <use x="216.748046875" xlink:href="#Arial-BoldMT-69"/>
     <use x="244.53125" xlink:href="#Arial-BoldMT-6c"/>
    </g>
   </g>
   <g id="text_4">
    <!-- 22.5% -->
    <defs>
     <path d="
M50.5938 12.75
L50.5938 0
L2.48438 0
Q3.26562 7.23438 7.17188 13.7031
Q11.0781 20.1719 22.6094 30.8594
Q31.8906 39.5 33.9844 42.5781
Q36.8125 46.8281 36.8125 50.9844
Q36.8125 55.5625 34.3438 58.0312
Q31.8906 60.5 27.5469 60.5
Q23.25 60.5 20.7031 57.9062
Q18.1719 55.3281 17.7812 49.3125
L4.10938 50.6875
Q5.32812 62.0156 11.7656 66.9375
Q18.2188 71.875 27.875 71.875
Q38.4844 71.875 44.5312 66.1562
Q50.5938 60.4531 50.5938 51.9531
Q50.5938 47.125 48.8594 42.75
Q47.125 38.375 43.3594 33.5938
Q40.875 30.4219 34.375 24.4531
Q27.875 18.5 26.1406 16.5469
Q24.4219 14.5938 23.3438 12.75
z
" id="Arial-BoldMT-32"/>
    </defs>
    <g style="fill:#262626;" transform="translate(400.403322822 265.851983015)scale(0.15 -0.15)">
     <use xlink:href="#Arial-BoldMT-32"/>
     <use x="55.615234375" xlink:href="#Arial-BoldMT-32"/>
     <use x="111.23046875" xlink:href="#Arial-BoldMT-2e"/>
     <use x="139.013671875" xlink:href="#Arial-BoldMT-35"/>
     <use x="194.62890625" xlink:href="#Arial-BoldMT-25"/>
    </g>
   </g>
   <g id="text_5">
    <!-- Chile -->
    <defs>
     <path d="
M20.8438 71.5781
L20.8438 45.2656
Q27.4844 53.0312 36.7188 53.0312
Q41.4531 53.0312 45.2656 51.2656
Q49.0781 49.5156 51 46.7812
Q52.9375 44.0469 53.6406 40.7188
Q54.3438 37.4062 54.3438 30.4219
L54.3438 0
L40.625 0
L40.625 27.3906
Q40.625 35.5469 39.8438 37.7344
Q39.0625 39.9375 37.0781 41.2344
Q35.1094 42.5312 32.125 42.5312
Q28.7188 42.5312 26.0312 40.8594
Q23.3438 39.2031 22.0938 35.8594
Q20.8438 32.5156 20.8438 25.9844
L20.8438 0
L7.125 0
L7.125 71.5781
z
" id="Arial-BoldMT-68"/>
     <path d="
M53.0781 26.3125
L67.0938 21.875
Q63.875 10.1562 56.375 4.46875
Q48.875 -1.21875 37.3594 -1.21875
Q23.0938 -1.21875 13.9062 8.51562
Q4.73438 18.2656 4.73438 35.1562
Q4.73438 53.0312 13.9531 62.9062
Q23.1875 72.7969 38.2344 72.7969
Q51.375 72.7969 59.5781 65.0469
Q64.4531 60.4531 66.8906 51.8594
L52.5938 48.4375
Q51.3125 54 47.2812 57.2188
Q43.2656 60.4531 37.5 60.4531
Q29.5469 60.4531 24.5781 54.7344
Q19.625 49.0312 19.625 36.2344
Q19.625 22.6562 24.5 16.8906
Q29.3906 11.1406 37.2031 11.1406
Q42.9688 11.1406 47.1094 14.7969
Q51.2656 18.4531 53.0781 26.3125" id="Arial-BoldMT-43"/>
    </defs>
    <g style="fill:#262626;" transform="translate(154.266909063 274.325843125)scale(0.15 -0.15)">
     <use xlink:href="#Arial-BoldMT-43"/>
     <use x="72.216796875" xlink:href="#Arial-BoldMT-68"/>
     <use x="133.30078125" xlink:href="#Arial-BoldMT-69"/>
     <use x="161.083984375" xlink:href="#Arial-BoldMT-6c"/>
     <use x="188.8671875" xlink:href="#Arial-BoldMT-65"/>
    </g>
   </g>
   <g id="text_6">
    <!-- 6.1% -->
    <defs>
     <path d="
M50.7344 54.0469
L37.4531 52.5938
Q36.9688 56.6875 34.9062 58.6406
Q32.8594 60.5938 29.5938 60.5938
Q25.25 60.5938 22.2344 56.6875
Q19.2344 52.7812 18.4531 40.4375
Q23.5781 46.4844 31.2031 46.4844
Q39.7969 46.4844 45.9219 39.9375
Q52.0469 33.4062 52.0469 23.0469
Q52.0469 12.0625 45.5938 5.42188
Q39.1562 -1.21875 29.0469 -1.21875
Q18.2188 -1.21875 11.2344 7.20312
Q4.25 15.625 4.25 34.8125
Q4.25 54.5 11.5156 63.1875
Q18.7969 71.875 30.4219 71.875
Q38.5781 71.875 43.9219 67.3125
Q49.2656 62.75 50.7344 54.0469
M19.625 24.125
Q19.625 17.4375 22.7031 13.7969
Q25.7812 10.1562 29.7344 10.1562
Q33.5469 10.1562 36.0781 13.125
Q38.625 16.1094 38.625 22.9062
Q38.625 29.8906 35.8906 33.125
Q33.1562 36.375 29.0469 36.375
Q25.0938 36.375 22.3594 33.2656
Q19.625 30.1719 19.625 24.125" id="Arial-BoldMT-36"/>
    </defs>
    <g style="fill:#262626;" transform="translate(288.306133637 342.854224091)scale(0.15 -0.15)">
     <use xlink:href="#Arial-BoldMT-36"/>
     <use x="55.615234375" xlink:href="#Arial-BoldMT-2e"/>
     <use x="83.3984375" xlink:href="#Arial-BoldMT-31"/>
     <use x="139.013671875" xlink:href="#Arial-BoldMT-25"/>
    </g>
   </g>
   <g id="text_7">
    <!-- Colombia -->
    <defs>
     <path d="
M6.59375 0
L6.59375 71.5781
L20.3125 71.5781
L20.3125 45.7969
Q26.6562 53.0312 35.3594 53.0312
Q44.8281 53.0312 51.0312 46.1719
Q57.2344 39.3125 57.2344 26.4688
Q57.2344 13.1875 50.9062 6
Q44.5781 -1.17188 35.5469 -1.17188
Q31.1094 -1.17188 26.7812 1.04688
Q22.4688 3.26562 19.3438 7.625
L19.3438 0
z

M20.2188 27.0469
Q20.2188 19 22.75 15.1406
Q26.3125 9.67188 32.2344 9.67188
Q36.7656 9.67188 39.9688 13.5469
Q43.1719 17.4375 43.1719 25.7812
Q43.1719 34.6719 39.9375 38.5938
Q36.7188 42.5312 31.6875 42.5312
Q26.7656 42.5312 23.4844 38.6875
Q20.2188 34.8594 20.2188 27.0469" id="Arial-BoldMT-62"/>
     <path d="
M6.15625 51.8594
L18.7969 51.8594
L18.7969 44.7812
Q25.5938 53.0312 34.9688 53.0312
Q39.9375 53.0312 43.5938 50.9688
Q47.2656 48.9219 49.6094 44.7812
Q53.0312 48.9219 56.9844 50.9688
Q60.9375 53.0312 65.4375 53.0312
Q71.1406 53.0312 75.0938 50.7031
Q79.0469 48.3906 81 43.8906
Q82.4219 40.5781 82.4219 33.1562
L82.4219 0
L68.7031 0
L68.7031 29.6406
Q68.7031 37.3594 67.2812 39.5938
Q65.375 42.5312 61.4219 42.5312
Q58.5469 42.5312 56 40.7656
Q53.4688 39.0156 52.3438 35.625
Q51.2188 32.2344 51.2188 24.9062
L51.2188 0
L37.5 0
L37.5 28.4219
Q37.5 35.9844 36.7656 38.1719
Q36.0312 40.375 34.4844 41.4531
Q32.9531 42.5312 30.3281 42.5312
Q27.1562 42.5312 24.6094 40.8125
Q22.0781 39.1094 20.9688 35.8906
Q19.875 32.6719 19.875 25.2031
L19.875 0
L6.15625 0
z
" id="Arial-BoldMT-6d"/>
     <path d="
M4 26.6562
Q4 33.5 7.375 39.8906
Q10.75 46.2969 16.9219 49.6562
Q23.0938 53.0312 30.7188 53.0312
Q42.4844 53.0312 50 45.3906
Q57.5156 37.75 57.5156 26.0781
Q57.5156 14.3125 49.9219 6.5625
Q42.3281 -1.17188 30.8125 -1.17188
Q23.6875 -1.17188 17.2188 2.04688
Q10.75 5.28125 7.375 11.5
Q4 17.7188 4 26.6562
M18.0625 25.9219
Q18.0625 18.2188 21.7188 14.1094
Q25.3906 10.0156 30.7656 10.0156
Q36.1406 10.0156 39.7656 14.1094
Q43.4062 18.2188 43.4062 26.0312
Q43.4062 33.6406 39.7656 37.7344
Q36.1406 41.8438 30.7656 41.8438
Q25.3906 41.8438 21.7188 37.7344
Q18.0625 33.6406 18.0625 25.9219" id="Arial-BoldMT-6f"/>
    </defs>
    <g style="fill:#262626;" transform="translate(83.8723193455 384.463246922)scale(0.15 -0.15)">
     <use xlink:href="#Arial-BoldMT-43"/>
     <use x="72.216796875" xlink:href="#Arial-BoldMT-6f"/>
     <use x="133.30078125" xlink:href="#Arial-BoldMT-6c"/>
     <use x="161.083984375" xlink:href="#Arial-BoldMT-6f"/>
     <use x="222.16796875" xlink:href="#Arial-BoldMT-6d"/>
     <use x="311.083984375" xlink:href="#Arial-BoldMT-62"/>
     <use x="372.16796875" xlink:href="#Arial-BoldMT-69"/>
     <use x="399.951171875" xlink:href="#Arial-BoldMT-61"/>
    </g>
   </g>
   <g id="text_8">
    <!-- 6.6% -->
    <g style="fill:#262626;" transform="translate(267.207238109 402.929171616)scale(0.15 -0.15)">
     <use xlink:href="#Arial-BoldMT-36"/>
     <use x="55.615234375" xlink:href="#Arial-BoldMT-2e"/>
     <use x="83.3984375" xlink:href="#Arial-BoldMT-36"/>
     <use x="139.013671875" xlink:href="#Arial-BoldMT-25"/>
    </g>
   </g>
   <g id="text_9">
    <!-- Ecuador -->
    <defs>
     <path d="
M52.3906 36.5312
L38.875 34.0781
Q38.1875 38.1406 35.7656 40.1875
Q33.3438 42.2344 29.5 42.2344
Q24.3594 42.2344 21.3125 38.6875
Q18.2656 35.1562 18.2656 26.8594
Q18.2656 17.625 21.3594 13.8125
Q24.4688 10.0156 29.6875 10.0156
Q33.5938 10.0156 36.0781 12.2344
Q38.5781 14.4531 39.5938 19.875
L53.0781 17.5781
Q50.9844 8.29688 45.0156 3.5625
Q39.0625 -1.17188 29.0469 -1.17188
Q17.6719 -1.17188 10.9062 6
Q4.15625 13.1875 4.15625 25.875
Q4.15625 38.7188 10.9375 45.875
Q17.7188 53.0312 29.2969 53.0312
Q38.7656 53.0312 44.3594 48.9531
Q49.9531 44.875 52.3906 36.5312" id="Arial-BoldMT-63"/>
     <path d="
M54.7344 0
L42 0
L42 7.625
Q38.8125 3.17188 34.4844 1
Q30.1719 -1.17188 25.7812 -1.17188
Q16.8438 -1.17188 10.4688 6.03125
Q4.10938 13.2344 4.10938 26.125
Q4.10938 39.3125 10.2969 46.1719
Q16.5 53.0312 25.9844 53.0312
Q34.6719 53.0312 41.0156 45.7969
L41.0156 71.5781
L54.7344 71.5781
z

M18.1094 27.0469
Q18.1094 18.75 20.4062 15.0469
Q23.7344 9.67188 29.6875 9.67188
Q34.4219 9.67188 37.7344 13.6875
Q41.0625 17.7188 41.0625 25.7344
Q41.0625 34.6719 37.8438 38.5938
Q34.625 42.5312 29.5938 42.5312
Q24.7031 42.5312 21.4062 38.6406
Q18.1094 34.7656 18.1094 27.0469" id="Arial-BoldMT-64"/>
     <path d="
M41.3125 0
L41.3125 7.76562
Q38.4844 3.60938 33.8594 1.21875
Q29.25 -1.17188 24.125 -1.17188
Q18.8906 -1.17188 14.7344 1.125
Q10.5938 3.42188 8.73438 7.5625
Q6.89062 11.7188 6.89062 19.0469
L6.89062 51.8594
L20.6094 51.8594
L20.6094 28.0312
Q20.6094 17.0938 21.3594 14.625
Q22.125 12.1562 24.125 10.7188
Q26.125 9.28125 29.2031 9.28125
Q32.7188 9.28125 35.5 11.2031
Q38.2812 13.1406 39.2969 15.9844
Q40.3281 18.8438 40.3281 29.9844
L40.3281 51.8594
L54.0469 51.8594
L54.0469 0
z
" id="Arial-BoldMT-75"/>
     <path d="
M7.28125 0
L7.28125 71.5781
L60.3594 71.5781
L60.3594 59.4688
L21.7344 59.4688
L21.7344 43.6094
L57.6719 43.6094
L57.6719 31.5469
L21.7344 31.5469
L21.7344 12.0625
L61.7188 12.0625
L61.7188 0
z
" id="Arial-BoldMT-45"/>
    </defs>
    <g style="fill:#262626;" transform="translate(90.5131961557 454.248126796)scale(0.15 -0.15)">
     <use xlink:href="#Arial-BoldMT-45"/>
     <use x="66.69921875" xlink:href="#Arial-BoldMT-63"/>
     <use x="122.314453125" xlink:href="#Arial-BoldMT-75"/>
     <use x="183.3984375" xlink:href="#Arial-BoldMT-61"/>
     <use x="239.013671875" xlink:href="#Arial-BoldMT-64"/>
     <use x="300.09765625" xlink:href="#Arial-BoldMT-6f"/>
     <use x="361.181640625" xlink:href="#Arial-BoldMT-72"/>
    </g>
   </g>
   <g id="text_10">
    <!-- 1.0% -->
    <defs>
     <path d="
M27.4375 71.875
Q37.8438 71.875 43.7031 64.4531
Q50.6875 55.6719 50.6875 35.2969
Q50.6875 14.9844 43.6562 6.10938
Q37.8438 -1.21875 27.4375 -1.21875
Q17 -1.21875 10.5938 6.8125
Q4.20312 14.8438 4.20312 35.4531
Q4.20312 55.6719 11.2344 64.5469
Q17.0469 71.875 27.4375 71.875
M27.4375 60.5
Q24.9531 60.5 23 58.9062
Q21.0469 57.3281 19.9688 53.2188
Q18.5625 47.9062 18.5625 35.2969
Q18.5625 22.7031 19.8281 17.9844
Q21.0938 13.2812 23.0156 11.7188
Q24.9531 10.1562 27.4375 10.1562
Q29.9375 10.1562 31.8906 11.7344
Q33.8438 13.3281 34.9062 17.4375
Q36.3281 22.7031 36.3281 35.2969
Q36.3281 47.9062 35.0625 52.6094
Q33.7969 57.3281 31.8594 58.9062
Q29.9375 60.5 27.4375 60.5" id="Arial-BoldMT-30"/>
    </defs>
    <g style="fill:#262626;" transform="translate(266.735429437 440.993651548)scale(0.15 -0.15)">
     <use xlink:href="#Arial-BoldMT-31"/>
     <use x="55.615234375" xlink:href="#Arial-BoldMT-2e"/>
     <use x="83.3984375" xlink:href="#Arial-BoldMT-30"/>
     <use x="139.013671875" xlink:href="#Arial-BoldMT-25"/>
    </g>
   </g>
   <g id="text_11">
    <!-- El Salvador -->
    <defs>
     <path id="Arial-BoldMT-20"/>
     <path d="
M21.4375 0
L0.53125 51.8594
L14.9375 51.8594
L24.7031 25.3906
L27.5469 16.5469
Q28.6562 19.9219 28.9531 21
Q29.6406 23.1875 30.4219 25.3906
L40.2812 51.8594
L54.3906 51.8594
L33.7969 0
z
" id="Arial-BoldMT-76"/>
     <path d="
M3.60938 23.2969
L17.6719 24.6562
Q18.9531 17.5781 22.8281 14.25
Q26.7031 10.9375 33.2969 10.9375
Q40.2812 10.9375 43.8125 13.8906
Q47.3594 16.8438 47.3594 20.7969
Q47.3594 23.3438 45.875 25.125
Q44.3906 26.9062 40.6719 28.2188
Q38.1406 29.1094 29.1094 31.3438
Q17.4844 34.2344 12.7969 38.4219
Q6.20312 44.3438 6.20312 52.8281
Q6.20312 58.2969 9.29688 63.0625
Q12.4062 67.8281 18.2344 70.3125
Q24.0781 72.7969 32.3281 72.7969
Q45.7969 72.7969 52.6094 66.8906
Q59.4219 60.9844 59.7656 51.125
L45.3125 50.4844
Q44.3906 56 41.3281 58.4219
Q38.2812 60.8438 32.1719 60.8438
Q25.875 60.8438 22.3125 58.25
Q20.0156 56.5938 20.0156 53.8125
Q20.0156 51.2656 22.1719 49.4688
Q24.9062 47.1719 35.4531 44.6719
Q46 42.1875 51.0469 39.5156
Q56.1094 36.8594 58.9531 32.25
Q61.8125 27.6406 61.8125 20.8438
Q61.8125 14.7031 58.3906 9.32812
Q54.9844 3.95312 48.7344 1.34375
Q42.4844 -1.26562 33.1562 -1.26562
Q19.5781 -1.26562 12.2969 5
Q5.03125 11.2812 3.60938 23.2969" id="Arial-BoldMT-53"/>
    </defs>
    <g style="fill:#262626;" transform="translate(69.0091220134 465.040445076)scale(0.15 -0.15)">
     <use xlink:href="#Arial-BoldMT-45"/>
     <use x="66.69921875" xlink:href="#Arial-BoldMT-6c"/>
     <use x="94.482421875" xlink:href="#Arial-BoldMT-20"/>
     <use x="122.265625" xlink:href="#Arial-BoldMT-53"/>
     <use x="188.96484375" xlink:href="#Arial-BoldMT-61"/>
     <use x="244.580078125" xlink:href="#Arial-BoldMT-6c"/>
     <use x="272.36328125" xlink:href="#Arial-BoldMT-76"/>
     <use x="327.978515625" xlink:href="#Arial-BoldMT-61"/>
     <use x="383.59375" xlink:href="#Arial-BoldMT-64"/>
     <use x="444.677734375" xlink:href="#Arial-BoldMT-6f"/>
     <use x="505.76171875" xlink:href="#Arial-BoldMT-72"/>
    </g>
   </g>
   <g id="text_12">
    <!-- 0.2% -->
    <g style="fill:#262626;" transform="translate(267.15305803 446.88037061)scale(0.15 -0.15)">
     <use xlink:href="#Arial-BoldMT-30"/>
     <use x="55.615234375" xlink:href="#Arial-BoldMT-2e"/>
     <use x="83.3984375" xlink:href="#Arial-BoldMT-32"/>
     <use x="139.013671875" xlink:href="#Arial-BoldMT-25"/>
    </g>
   </g>
   <g id="text_13">
    <!-- Mexico -->
    <defs>
     <path d="
M0.59375 0
L19.2812 26.7031
L1.375 51.8594
L18.1094 51.8594
L27.2969 37.5938
L36.9688 51.8594
L53.0781 51.8594
L35.5 27.2969
L54.6875 0
L37.8438 0
L27.2969 16.0625
L16.6562 0
z
" id="Arial-BoldMT-78"/>
     <path d="
M7.07812 0
L7.07812 71.5781
L28.7188 71.5781
L41.7031 22.75
L54.5469 71.5781
L76.2188 71.5781
L76.2188 0
L62.7969 0
L62.7969 56.3438
L48.5781 0
L34.6719 0
L20.5156 56.3438
L20.5156 0
z
" id="Arial-BoldMT-4d"/>
    </defs>
    <g style="fill:#262626;" transform="translate(182.356023824 630.517261147)scale(0.15 -0.15)">
     <use xlink:href="#Arial-BoldMT-4d"/>
     <use x="83.30078125" xlink:href="#Arial-BoldMT-65"/>
     <use x="138.916015625" xlink:href="#Arial-BoldMT-78"/>
     <use x="194.53125" xlink:href="#Arial-BoldMT-69"/>
     <use x="222.314453125" xlink:href="#Arial-BoldMT-63"/>
     <use x="277.9296875" xlink:href="#Arial-BoldMT-6f"/>
    </g>
   </g>
   <g id="text_14">
    <!-- 20.1% -->
    <g style="fill:#262626;" transform="translate(306.87718487 537.140452103)scale(0.15 -0.15)">
     <use xlink:href="#Arial-BoldMT-32"/>
     <use x="55.615234375" xlink:href="#Arial-BoldMT-30"/>
     <use x="111.23046875" xlink:href="#Arial-BoldMT-2e"/>
     <use x="139.013671875" xlink:href="#Arial-BoldMT-31"/>
     <use x="194.62890625" xlink:href="#Arial-BoldMT-25"/>
    </g>
   </g>
   <g id="text_15">
    <!-- Paraguay -->
    <defs>
     <path d="
M0.6875 51.8594
L15.2812 51.8594
L27.6875 15.0469
L39.7969 51.8594
L54 51.8594
L35.6875 1.95312
L32.4219 -7.07812
Q30.6094 -11.625 28.9688 -14.0156
Q27.3438 -16.4062 25.2188 -17.8906
Q23.0938 -19.3906 19.9844 -20.2188
Q16.8906 -21.0469 12.9844 -21.0469
Q9.03125 -21.0469 5.21875 -20.2188
L4 -9.46875
Q7.23438 -10.1094 9.8125 -10.1094
Q14.5938 -10.1094 16.8906 -7.29688
Q19.1875 -4.5 20.4062 -0.140625
z
" id="Arial-BoldMT-79"/>
     <path d="
M7.28125 0
L7.28125 71.5781
L30.4688 71.5781
Q43.6562 71.5781 47.6562 70.5156
Q53.8125 68.8906 57.9531 63.5
Q62.1094 58.1094 62.1094 49.5625
Q62.1094 42.9688 59.7188 38.4688
Q57.3281 33.9844 53.6406 31.4219
Q49.9531 28.8594 46.1406 28.0312
Q40.9688 27 31.1562 27
L21.7344 27
L21.7344 0
z

M21.7344 59.4688
L21.7344 39.1562
L29.6406 39.1562
Q38.1875 39.1562 41.0625 40.2812
Q43.9531 41.4062 45.5781 43.7969
Q47.2188 46.1875 47.2188 49.3594
Q47.2188 53.2656 44.9219 55.7969
Q42.625 58.3438 39.1094 58.9844
Q36.5312 59.4688 28.7188 59.4688
z
" id="Arial-BoldMT-50"/>
    </defs>
    <g style="fill:#262626;" transform="translate(349.243900525 718.341002693)scale(0.15 -0.15)">
     <use xlink:href="#Arial-BoldMT-50"/>
     <use x="66.69921875" xlink:href="#Arial-BoldMT-61"/>
     <use x="122.314453125" xlink:href="#Arial-BoldMT-72"/>
     <use x="161.23046875" xlink:href="#Arial-BoldMT-61"/>
     <use x="216.845703125" xlink:href="#Arial-BoldMT-67"/>
     <use x="277.9296875" xlink:href="#Arial-BoldMT-75"/>
     <use x="339.013671875" xlink:href="#Arial-BoldMT-61"/>
     <use x="394.62890625" xlink:href="#Arial-BoldMT-79"/>
    </g>
   </g>
   <g id="text_16">
    <!-- 2.4% -->
    <defs>
     <path d="
M31.1562 0
L31.1562 14.4062
L1.85938 14.4062
L1.85938 26.4219
L32.9062 71.875
L44.4375 71.875
L44.4375 26.4688
L53.3281 26.4688
L53.3281 14.4062
L44.4375 14.4062
L44.4375 0
z

M31.1562 26.4688
L31.1562 50.9219
L14.7031 26.4688
z
" id="Arial-BoldMT-34"/>
    </defs>
    <g style="fill:#262626;" transform="translate(411.321815059 585.09800431)scale(0.15 -0.15)">
     <use xlink:href="#Arial-BoldMT-32"/>
     <use x="55.615234375" xlink:href="#Arial-BoldMT-2e"/>
     <use x="83.3984375" xlink:href="#Arial-BoldMT-34"/>
     <use x="139.013671875" xlink:href="#Arial-BoldMT-25"/>
    </g>
   </g>
   <g id="text_17">
    <!-- Uruguay -->
    <defs>
     <path d="
M7.17188 71.5781
L21.625 71.5781
L21.625 32.8125
Q21.625 23.5781 22.1719 20.8438
Q23.0938 16.4531 26.5781 13.7969
Q30.0781 11.1406 36.1406 11.1406
Q42.2812 11.1406 45.4062 13.6406
Q48.5312 16.1562 49.1719 19.8125
Q49.8125 23.4844 49.8125 31.9844
L49.8125 71.5781
L64.2656 71.5781
L64.2656 33.9844
Q64.2656 21.0938 63.0938 15.7656
Q61.9219 10.4531 58.7656 6.78125
Q55.6094 3.125 50.3281 0.953125
Q45.0625 -1.21875 36.5781 -1.21875
Q26.3125 -1.21875 21.0156 1.14062
Q15.7188 3.51562 12.6406 7.29688
Q9.57812 11.0781 8.59375 15.2344
Q7.17188 21.3906 7.17188 33.4062
z
" id="Arial-BoldMT-55"/>
    </defs>
    <g style="fill:#262626;" transform="translate(444.611307929 719.608275861)scale(0.15 -0.15)">
     <use xlink:href="#Arial-BoldMT-55"/>
     <use x="72.216796875" xlink:href="#Arial-BoldMT-72"/>
     <use x="111.1328125" xlink:href="#Arial-BoldMT-75"/>
     <use x="172.216796875" xlink:href="#Arial-BoldMT-67"/>
     <use x="233.30078125" xlink:href="#Arial-BoldMT-75"/>
     <use x="294.384765625" xlink:href="#Arial-BoldMT-61"/>
     <use x="350.0" xlink:href="#Arial-BoldMT-79"/>
    </g>
   </g>
   <g id="text_18">
    <!-- 0.7% -->
    <defs>
     <path d="
M4.25 57.8594
L4.25 70.6094
L51.1719 70.6094
L51.1719 60.6406
Q45.3594 54.9375 39.3438 44.2344
Q33.3438 33.5469 30.1875 21.5
Q27.0469 9.46875 27.0938 0
L13.875 0
Q14.2031 14.8438 19.9844 30.2656
Q25.7812 45.7031 35.4531 57.8594
z
" id="Arial-BoldMT-37"/>
    </defs>
    <g style="fill:#262626;" transform="translate(427.360642393 585.78924422)scale(0.15 -0.15)">
     <use xlink:href="#Arial-BoldMT-30"/>
     <use x="55.615234375" xlink:href="#Arial-BoldMT-2e"/>
     <use x="83.3984375" xlink:href="#Arial-BoldMT-37"/>
     <use x="139.013671875" xlink:href="#Arial-BoldMT-25"/>
    </g>
   </g>
   <g id="text_19">
    <!-- Venezuela -->
    <defs>
     <path d="
M25.5312 0
L-0.046875 71.5781
L15.625 71.5781
L33.7344 18.6094
L51.2656 71.5781
L66.6094 71.5781
L40.9688 0
z
" id="Arial-BoldMT-56"/>
    </defs>
    <g style="fill:#262626;" transform="translate(654.150213884 630.354908998)scale(0.15 -0.15)">
     <use xlink:href="#Arial-BoldMT-56"/>
     <use x="61.19921875" xlink:href="#Arial-BoldMT-65"/>
     <use x="116.814453125" xlink:href="#Arial-BoldMT-6e"/>
     <use x="177.8984375" xlink:href="#Arial-BoldMT-65"/>
     <use x="233.513671875" xlink:href="#Arial-BoldMT-7a"/>
     <use x="283.513671875" xlink:href="#Arial-BoldMT-75"/>
     <use x="344.59765625" xlink:href="#Arial-BoldMT-65"/>
     <use x="400.212890625" xlink:href="#Arial-BoldMT-6c"/>
     <use x="427.99609375" xlink:href="#Arial-BoldMT-61"/>
    </g>
   </g>
   <g id="text_20">
    <!-- 24.5% -->
    <g style="fill:#262626;" transform="translate(537.354981721 537.051896385)scale(0.15 -0.15)">
     <use xlink:href="#Arial-BoldMT-32"/>
     <use x="55.615234375" xlink:href="#Arial-BoldMT-34"/>
     <use x="111.23046875" xlink:href="#Arial-BoldMT-2e"/>
     <use x="139.013671875" xlink:href="#Arial-BoldMT-35"/>
     <use x="194.62890625" xlink:href="#Arial-BoldMT-25"/>
    </g>
   </g>
  </g>
 </g>
</svg>
