<?xml version="1.0" encoding="utf-8" standalone="no"?>
<!DOCTYPE svg PUBLIC "-//W3C//DTD SVG 1.1//EN"
  "http://www.w3.org/Graphics/SVG/1.1/DTD/svg11.dtd">
<!-- Created with matplotlib (http://matplotlib.org/) -->
<svg height="864pt" version="1.1" viewBox="0 0 864 864" width="864pt" xmlns="http://www.w3.org/2000/svg" xmlns:xlink="http://www.w3.org/1999/xlink">
 <defs>
  <style type="text/css">
*{stroke-linecap:butt;stroke-linejoin:round;}
  </style>
 </defs>
 <g id="figure_1">
  <g id="patch_1">
   <path d="
M0 864
L864 864
L864 0
L0 0
z
" style="fill:#ffffff;"/>
  </g>
  <g id="axes_1">
   <g id="matplotlib.axis_1"/>
   <g id="matplotlib.axis_2"/>
   <g id="patch_2">
    <path d="
M710.64 421.2
C710.64 370.908 696.475 321.618 669.774 278.999
C643.073 236.38 604.9 202.131 559.646 180.191
L442.8 421.2
L710.64 421.2
z
" style="fill:#1b9e77;stroke:#eeeeee;stroke-linejoin:miter;stroke-width:0.5;"/>
   </g>
   <g id="patch_3">
    <path d="
M559.646 180.191
C548.152 174.619 536.275 169.876 524.104 165.998
C511.933 162.121 499.501 159.119 486.902 157.016
L442.8 421.2
L559.646 180.191
z
" style="fill:#d95f02;stroke:#eeeeee;stroke-linejoin:miter;stroke-width:0.5;"/>
   </g>
   <g id="patch_4">
    <path d="
M486.902 157.016
C439.256 149.062 390.334 154.144 345.34 171.721
C300.346 189.298 260.935 218.724 231.297 256.869
L442.8 421.2
L486.902 157.016
z
" style="fill:#7570b3;stroke:#eeeeee;stroke-linejoin:miter;stroke-width:0.5;"/>
   </g>
   <g id="patch_5">
    <path d="
M231.297 256.869
C214.157 278.929 200.573 303.537 191.039 329.797
C181.505 356.057 176.138 383.648 175.133 411.567
L442.8 421.2
L231.297 256.869
z
" style="fill:#e7298a;stroke:#eeeeee;stroke-linejoin:miter;stroke-width:0.5;"/>
   </g>
   <g id="patch_6">
    <path d="
M175.133 411.567
C173.792 448.848 180.253 486 194.103 520.639
C207.953 555.277 228.888 586.643 255.563 612.721
C282.238 638.8 314.069 659.02 349.012 672.083
C383.955 685.145 421.244 690.765 458.485 688.58
L442.8 421.2
L175.133 411.567
z
" style="fill:#66a61e;stroke:#eeeeee;stroke-linejoin:miter;stroke-width:0.5;"/>
   </g>
   <g id="patch_7">
    <path d="
M458.485 688.58
C466.138 688.131 473.768 687.354 481.354 686.251
C488.94 685.147 496.475 683.719 503.938 681.969
L442.8 421.2
L458.485 688.58
z
" style="fill:#e6ab02;stroke:#eeeeee;stroke-linejoin:miter;stroke-width:0.5;"/>
   </g>
   <g id="patch_8">
    <path d="
M503.938 681.969
C525.143 676.997 545.663 669.458 565.042 659.518
C584.421 649.577 602.515 637.31 618.924 622.989
L442.8 421.2
L503.938 681.969
z
" style="fill:#a6761d;stroke:#eeeeee;stroke-linejoin:miter;stroke-width:0.5;"/>
   </g>
   <g id="patch_9">
    <path d="
M618.924 622.989
C626.794 616.12 634.255 608.796 641.269 601.056
C648.284 593.316 654.84 585.171 660.903 576.665
L442.8 421.2
L618.924 622.989
z
" style="fill:#1b9e77;stroke:#eeeeee;stroke-linejoin:miter;stroke-width:0.5;"/>
   </g>
   <g id="patch_10">
    <path d="
M660.903 576.665
C670.86 562.696 679.453 547.802 686.562 532.189
C693.671 516.575 699.263 500.315 703.262 483.633
L442.8 421.2
L660.903 576.665
z
" style="fill:#d95f02;stroke:#eeeeee;stroke-linejoin:miter;stroke-width:0.5;"/>
   </g>
   <g id="patch_11">
    <path d="
M703.262 483.633
C705.711 473.417 707.556 463.066 708.789 452.634
C710.022 442.201 710.64 431.705 710.64 421.2
L442.8 421.2
L703.262 483.633
z
" style="fill:#7570b3;stroke:#eeeeee;stroke-linejoin:miter;stroke-width:0.5;"/>
   </g>
   <g id="text_1">
    <!-- Venezuela -->
    <defs>
     <path d="
M0.484375 72.9062
L19.3906 72.9062
L38.7188 19.0938
L58.0156 72.9062
L76.9062 72.9062
L49.9062 0
L27.4844 0
z
" id="BitstreamVeraSans-Bold-56"/>
     <path d="
M32.9062 24.6094
Q27.4375 24.6094 24.6719 22.75
Q21.9219 20.9062 21.9219 17.2812
Q21.9219 13.9688 24.1406 12.0781
Q26.375 10.2031 30.3281 10.2031
Q35.25 10.2031 38.625 13.7344
Q42 17.2812 42 22.6094
L42 24.6094
z

M59.625 31.2031
L59.625 0
L42 0
L42 8.10938
Q38.4844 3.125 34.0781 0.84375
Q29.6875 -1.42188 23.3906 -1.42188
Q14.8906 -1.42188 9.59375 3.53125
Q4.29688 8.5 4.29688 16.4062
Q4.29688 26.0312 10.9062 30.5156
Q17.5312 35.0156 31.6875 35.0156
L42 35.0156
L42 36.375
Q42 40.5312 38.7188 42.4531
Q35.4531 44.3906 28.5156 44.3906
Q22.9062 44.3906 18.0625 43.2656
Q13.2344 42.1406 9.07812 39.8906
L9.07812 53.2188
Q14.7031 54.5938 20.3594 55.2969
Q26.0312 56 31.6875 56
Q46.4844 56 53.0469 50.1719
Q59.625 44.3438 59.625 31.2031" id="BitstreamVeraSans-Bold-61"/>
     <path d="
M7.8125 21.2969
L7.8125 54.6875
L25.3906 54.6875
L25.3906 49.2188
Q25.3906 44.7812 25.3438 38.0625
Q25.2969 31.3438 25.2969 29.1094
Q25.2969 22.5156 25.6406 19.6094
Q25.9844 16.7031 26.8125 15.375
Q27.875 13.6719 29.6094 12.7344
Q31.3438 11.8125 33.5938 11.8125
Q39.0625 11.8125 42.1875 16.0156
Q45.3125 20.2188 45.3125 27.6875
L45.3125 54.6875
L62.7969 54.6875
L62.7969 0
L45.3125 0
L45.3125 7.90625
Q41.3594 3.125 36.9375 0.84375
Q32.5156 -1.42188 27.2031 -1.42188
Q17.7188 -1.42188 12.7656 4.39062
Q7.8125 10.2031 7.8125 21.2969" id="BitstreamVeraSans-Bold-75"/>
     <path d="
M62.9844 27.4844
L62.9844 22.5156
L22.125 22.5156
Q22.75 16.3594 26.5625 13.2812
Q30.375 10.2031 37.2031 10.2031
Q42.7188 10.2031 48.5 11.8438
Q54.2969 13.4844 60.4062 16.7969
L60.4062 3.32812
Q54.2031 0.984375 48 -0.21875
Q41.7969 -1.42188 35.5938 -1.42188
Q20.75 -1.42188 12.5156 6.125
Q4.29688 13.6719 4.29688 27.2969
Q4.29688 40.6719 12.375 48.3281
Q20.4531 56 34.625 56
Q47.5156 56 55.25 48.2344
Q62.9844 40.4844 62.9844 27.4844
M45.0156 33.2969
Q45.0156 38.2812 42.1094 41.3281
Q39.2031 44.3906 34.5156 44.3906
Q29.4375 44.3906 26.2656 41.5312
Q23.0938 38.6719 22.3125 33.2969
z
" id="BitstreamVeraSans-Bold-65"/>
     <path d="
M5.71875 54.6875
L53.4219 54.6875
L53.4219 42.4844
L24.6094 12.5
L53.4219 12.5
L53.4219 0
L4.5 0
L4.5 12.2031
L33.2969 42.1875
L5.71875 42.1875
z
" id="BitstreamVeraSans-Bold-7a"/>
     <path d="
M8.40625 75.9844
L25.875 75.9844
L25.875 0
L8.40625 0
z
" id="BitstreamVeraSans-Bold-6c"/>
     <path d="
M63.375 33.2969
L63.375 0
L45.7969 0
L45.7969 5.42188
L45.7969 25.4844
Q45.7969 32.5625 45.4844 35.25
Q45.1719 37.9375 44.3906 39.2031
Q43.3594 40.9219 41.5938 41.875
Q39.8438 42.8281 37.5938 42.8281
Q32.125 42.8281 29 38.5938
Q25.875 34.375 25.875 26.9062
L25.875 0
L8.40625 0
L8.40625 54.6875
L25.875 54.6875
L25.875 46.6875
Q29.8281 51.4688 34.2656 53.7344
Q38.7188 56 44.0938 56
Q53.5625 56 58.4688 50.1875
Q63.375 44.3906 63.375 33.2969" id="BitstreamVeraSans-Bold-6e"/>
    </defs>
    <g transform="translate(692.471381241 268.91814713)scale(0.15 -0.15)">
     <use xlink:href="#BitstreamVeraSans-Bold-56"/>
     <use x="71.892578125" xlink:href="#BitstreamVeraSans-Bold-65"/>
     <use x="139.71484375" xlink:href="#BitstreamVeraSans-Bold-6e"/>
     <use x="210.90625" xlink:href="#BitstreamVeraSans-Bold-65"/>
     <use x="278.728515625" xlink:href="#BitstreamVeraSans-Bold-7a"/>
     <use x="336.931640625" xlink:href="#BitstreamVeraSans-Bold-75"/>
     <use x="408.123046875" xlink:href="#BitstreamVeraSans-Bold-65"/>
     <use x="475.9453125" xlink:href="#BitstreamVeraSans-Bold-6c"/>
     <use x="510.22265625" xlink:href="#BitstreamVeraSans-Bold-61"/>
    </g>
   </g>
   <g id="text_2">
    <!-- 17.8% -->
    <defs>
     <path d="
M77.4844 30.0781
Q74.0312 30.0781 72.125 27.0781
Q70.2188 24.0781 70.2188 18.5
Q70.2188 12.8906 72.0938 9.89062
Q73.9688 6.89062 77.4844 6.89062
Q81 6.89062 82.8594 9.89062
Q84.7188 12.8906 84.7188 18.5
Q84.7188 24.0781 82.8281 27.0781
Q80.9531 30.0781 77.4844 30.0781
M77.4844 38.2812
Q86.5781 38.2812 91.7969 33
Q97.0156 27.7344 97.0156 18.5
Q97.0156 9.28125 91.7969 3.92188
Q86.5781 -1.42188 77.4844 -1.42188
Q68.4062 -1.42188 63.1562 3.92188
Q57.9062 9.28125 57.9062 18.5
Q57.9062 27.6875 63.1562 32.9844
Q68.4062 38.2812 77.4844 38.2812
M32.7188 -1.42188
L21.9219 -1.42188
L67.4844 74.2188
L78.3281 74.2188
z

M22.7031 74.2188
Q31.7812 74.2188 36.9844 68.9219
Q42.1875 63.625 42.1875 54.3906
Q42.1875 45.1719 36.9844 39.8438
Q31.7812 34.5156 22.7031 34.5156
Q13.625 34.5156 8.42188 39.8438
Q3.21875 45.1719 3.21875 54.3906
Q3.21875 63.625 8.42188 68.9219
Q13.625 74.2188 22.7031 74.2188
M22.7031 66.0156
Q19.1875 66.0156 17.2812 62.9844
Q15.375 59.9688 15.375 54.3906
Q15.375 48.7812 17.2812 45.7188
Q19.1875 42.6719 22.7031 42.6719
Q26.2188 42.6719 28.0938 45.7188
Q29.9844 48.7812 29.9844 54.3906
Q29.9844 59.9688 28.0781 62.9844
Q26.1719 66.0156 22.7031 66.0156" id="BitstreamVeraSans-Bold-25"/>
     <path d="
M6.6875 72.9062
L61.625 72.9062
L61.625 62.3125
L33.2031 0
L14.8906 0
L41.7969 59.0781
L6.6875 59.0781
z
" id="BitstreamVeraSans-Bold-37"/>
     <path d="
M10.2031 18.8906
L27.7812 18.8906
L27.7812 0
L10.2031 0
z
" id="BitstreamVeraSans-Bold-2e"/>
     <path d="
M11.7188 12.9844
L28.3281 12.9844
L28.3281 60.1094
L11.2812 56.5938
L11.2812 69.3906
L28.2188 72.9062
L46.0938 72.9062
L46.0938 12.9844
L62.7031 12.9844
L62.7031 0
L11.7188 0
z
" id="BitstreamVeraSans-Bold-31"/>
     <path d="
M34.8125 32.625
Q29.5469 32.625 26.7031 29.7344
Q23.875 26.8594 23.875 21.4844
Q23.875 16.1094 26.7031 13.25
Q29.5469 10.4062 34.8125 10.4062
Q40.0469 10.4062 42.8281 13.25
Q45.6094 16.1094 45.6094 21.4844
Q45.6094 26.9062 42.8281 29.7656
Q40.0469 32.625 34.8125 32.625
M21.0938 38.8125
Q14.4531 40.8281 11.0781 44.9688
Q7.71875 49.125 7.71875 55.3281
Q7.71875 64.5469 14.5938 69.375
Q21.4844 74.2188 34.8125 74.2188
Q48.0469 74.2188 54.9219 69.4062
Q61.8125 64.5938 61.8125 55.3281
Q61.8125 49.125 58.4219 44.9688
Q55.0312 40.8281 48.3906 38.8125
Q55.8125 36.7656 59.5938 32.1562
Q63.375 27.5469 63.375 20.5156
Q63.375 9.67188 56.1719 4.125
Q48.9688 -1.42188 34.8125 -1.42188
Q20.6094 -1.42188 13.3594 4.125
Q6.10938 9.67188 6.10938 20.5156
Q6.10938 27.5469 9.89062 32.1562
Q13.6719 36.7656 21.0938 38.8125
M25.4844 53.4219
Q25.4844 49.0781 27.9062 46.7344
Q30.3281 44.3906 34.8125 44.3906
Q39.2031 44.3906 41.5938 46.7344
Q44 49.0781 44 53.4219
Q44 57.7656 41.5938 60.0781
Q39.2031 62.4062 34.8125 62.4062
Q30.3281 62.4062 27.9062 60.0625
Q25.4844 57.7188 25.4844 53.4219" id="BitstreamVeraSans-Bold-38"/>
    </defs>
    <g transform="translate(554.050405393 340.018563208)scale(0.15 -0.15)">
     <use xlink:href="#BitstreamVeraSans-Bold-31"/>
     <use x="69.580078125" xlink:href="#BitstreamVeraSans-Bold-37"/>
     <use x="139.16015625" xlink:href="#BitstreamVeraSans-Bold-2e"/>
     <use x="177.1484375" xlink:href="#BitstreamVeraSans-Bold-38"/>
     <use x="246.728515625" xlink:href="#BitstreamVeraSans-Bold-25"/>
    </g>
   </g>
   <g id="text_3">
    <!-- Chile -->
    <defs>
     <path d="
M63.375 33.2969
L63.375 0
L45.7969 0
L45.7969 5.42188
L45.7969 25.3906
Q45.7969 32.5625 45.4844 35.25
Q45.1719 37.9375 44.3906 39.2031
Q43.3594 40.9219 41.5938 41.875
Q39.8438 42.8281 37.5938 42.8281
Q32.125 42.8281 29 38.5938
Q25.875 34.375 25.875 26.9062
L25.875 0
L8.40625 0
L8.40625 75.9844
L25.875 75.9844
L25.875 46.6875
Q29.8281 51.4688 34.2656 53.7344
Q38.7188 56 44.0938 56
Q53.5625 56 58.4688 50.1875
Q63.375 44.3906 63.375 33.2969" id="BitstreamVeraSans-Bold-68"/>
     <path d="
M67 4
Q61.8125 1.3125 56.2031 -0.046875
Q50.5938 -1.42188 44.4844 -1.42188
Q26.2656 -1.42188 15.625 8.76562
Q4.98438 18.9531 4.98438 36.375
Q4.98438 53.8594 15.625 64.0312
Q26.2656 74.2188 44.4844 74.2188
Q50.5938 74.2188 56.2031 72.8438
Q61.8125 71.4844 67 68.7969
L67 53.7188
Q61.7656 57.2812 56.6875 58.9375
Q51.6094 60.5938 46 60.5938
Q35.9375 60.5938 30.1719 54.1406
Q24.4219 47.7031 24.4219 36.375
Q24.4219 25.0938 30.1719 18.6406
Q35.9375 12.2031 46 12.2031
Q51.6094 12.2031 56.6875 13.8594
Q61.7656 15.5312 67 19.0938
z
" id="BitstreamVeraSans-Bold-43"/>
     <path d="
M8.40625 54.6875
L25.875 54.6875
L25.875 0
L8.40625 0
z

M8.40625 75.9844
L25.875 75.9844
L25.875 61.7188
L8.40625 61.7188
z
" id="BitstreamVeraSans-Bold-69"/>
    </defs>
    <g transform="translate(532.234500956 144.617186946)scale(0.15 -0.15)">
     <use xlink:href="#BitstreamVeraSans-Bold-43"/>
     <use x="73.388671875" xlink:href="#BitstreamVeraSans-Bold-68"/>
     <use x="144.580078125" xlink:href="#BitstreamVeraSans-Bold-69"/>
     <use x="178.857421875" xlink:href="#BitstreamVeraSans-Bold-6c"/>
     <use x="213.134765625" xlink:href="#BitstreamVeraSans-Bold-65"/>
    </g>
   </g>
   <g id="text_4">
    <!-- 4.6% -->
    <defs>
     <path d="
M36.8125 57.4219
L16.2188 26.9062
L36.8125 26.9062
z

M33.6875 72.9062
L54.5938 72.9062
L54.5938 26.9062
L64.9844 26.9062
L64.9844 13.2812
L54.5938 13.2812
L54.5938 0
L36.8125 0
L36.8125 13.2812
L4.5 13.2812
L4.5 29.3906
z
" id="BitstreamVeraSans-Bold-34"/>
     <path d="
M36.1875 35.9844
Q31.25 35.9844 28.7812 32.7812
Q26.3125 29.5938 26.3125 23.1875
Q26.3125 16.7969 28.7812 13.5938
Q31.25 10.4062 36.1875 10.4062
Q41.1562 10.4062 43.625 13.5938
Q46.0938 16.7969 46.0938 23.1875
Q46.0938 29.5938 43.625 32.7812
Q41.1562 35.9844 36.1875 35.9844
M59.4219 71
L59.4219 57.5156
Q54.7812 59.7188 50.6719 60.7656
Q46.5781 61.8125 42.6719 61.8125
Q34.2812 61.8125 29.5938 57.1406
Q24.9062 52.4844 24.125 43.3125
Q27.3438 45.7031 31.0938 46.8906
Q34.8594 48.0938 39.3125 48.0938
Q50.4844 48.0938 57.3438 41.5469
Q64.2031 35.0156 64.2031 24.4219
Q64.2031 12.7031 56.5312 5.64062
Q48.875 -1.42188 35.9844 -1.42188
Q21.7812 -1.42188 13.9844 8.17188
Q6.20312 17.7812 6.20312 35.4062
Q6.20312 53.4688 15.3125 63.7969
Q24.4219 74.125 40.2812 74.125
Q45.3125 74.125 50.0469 73.3438
Q54.7812 72.5625 59.4219 71" id="BitstreamVeraSans-Bold-36"/>
    </defs>
    <g transform="translate(471.358236317 272.21803947)scale(0.15 -0.15)">
     <use xlink:href="#BitstreamVeraSans-Bold-34"/>
     <use x="69.580078125" xlink:href="#BitstreamVeraSans-Bold-2e"/>
     <use x="107.568359375" xlink:href="#BitstreamVeraSans-Bold-36"/>
     <use x="177.1484375" xlink:href="#BitstreamVeraSans-Bold-25"/>
    </g>
   </g>
   <g id="text_5">
    <!-- Brazil -->
    <defs>
     <path d="
M38.375 44.6719
Q42.8281 44.6719 45.1094 46.625
Q47.4062 48.5781 47.4062 52.3906
Q47.4062 56.1562 45.1094 58.125
Q42.8281 60.1094 38.375 60.1094
L27.9844 60.1094
L27.9844 44.6719
z

M39.0156 12.7969
Q44.6719 12.7969 47.5312 15.1875
Q50.3906 17.5781 50.3906 22.4062
Q50.3906 27.1562 47.5625 29.5156
Q44.7344 31.8906 39.0156 31.8906
L27.9844 31.8906
L27.9844 12.7969
z

M56.5 39.0156
Q62.5469 37.25 65.8594 32.5156
Q69.1875 27.7812 69.1875 20.9062
Q69.1875 10.3594 62.0625 5.17188
Q54.9375 0 40.375 0
L9.1875 0
L9.1875 72.9062
L37.4062 72.9062
Q52.5938 72.9062 59.4062 68.3125
Q66.2188 63.7188 66.2188 53.6094
Q66.2188 48.2969 63.7188 44.5625
Q61.2344 40.8281 56.5 39.0156" id="BitstreamVeraSans-Bold-42"/>
     <path d="
M49.0312 39.7969
Q46.7344 40.875 44.4531 41.375
Q42.1875 41.8906 39.8906 41.8906
Q33.1562 41.8906 29.5156 37.5625
Q25.875 33.25 25.875 25.2031
L25.875 0
L8.40625 0
L8.40625 54.6875
L25.875 54.6875
L25.875 45.7031
Q29.25 51.0781 33.6094 53.5312
Q37.9844 56 44.0938 56
Q44.9688 56 45.9844 55.9219
Q47.0156 55.8594 48.9688 55.6094
z
" id="BitstreamVeraSans-Bold-72"/>
    </defs>
    <g transform="translate(290.266106058 150.911978411)scale(0.15 -0.15)">
     <use xlink:href="#BitstreamVeraSans-Bold-42"/>
     <use x="76.220703125" xlink:href="#BitstreamVeraSans-Bold-72"/>
     <use x="125.537109375" xlink:href="#BitstreamVeraSans-Bold-61"/>
     <use x="193.017578125" xlink:href="#BitstreamVeraSans-Bold-7a"/>
     <use x="251.220703125" xlink:href="#BitstreamVeraSans-Bold-69"/>
     <use x="285.498046875" xlink:href="#BitstreamVeraSans-Bold-6c"/>
    </g>
   </g>
   <g id="text_6">
    <!-- 17.1% -->
    <g transform="translate(359.390141656 275.651562088)scale(0.15 -0.15)">
     <use xlink:href="#BitstreamVeraSans-Bold-31"/>
     <use x="69.580078125" xlink:href="#BitstreamVeraSans-Bold-37"/>
     <use x="139.16015625" xlink:href="#BitstreamVeraSans-Bold-2e"/>
     <use x="177.1484375" xlink:href="#BitstreamVeraSans-Bold-31"/>
     <use x="246.728515625" xlink:href="#BitstreamVeraSans-Bold-25"/>
    </g>
   </g>
   <g id="text_7">
    <!-- Paraguay -->
    <defs>
     <path d="
M1.21875 54.6875
L18.7031 54.6875
L33.4062 17.5781
L45.9062 54.6875
L63.375 54.6875
L40.375 -5.17188
Q36.9219 -14.3125 32.2969 -17.9375
Q27.6875 -21.5781 20.125 -21.5781
L10.0156 -21.5781
L10.0156 -10.1094
L15.4844 -10.1094
Q19.9219 -10.1094 21.9375 -8.6875
Q23.9688 -7.28125 25.0938 -3.60938
L25.5938 -2.09375
z
" id="BitstreamVeraSans-Bold-79"/>
     <path d="
M45.6094 9.28125
Q42 4.5 37.6406 2.25
Q33.2969 0 27.5938 0
Q17.5781 0 11.0312 7.875
Q4.5 15.7656 4.5 27.9844
Q4.5 40.2344 11.0312 48.0625
Q17.5781 55.9062 27.5938 55.9062
Q33.2969 55.9062 37.6406 53.6562
Q42 51.4219 45.6094 46.5781
L45.6094 54.6875
L63.1875 54.6875
L63.1875 5.51562
Q63.1875 -7.67188 54.8594 -14.625
Q46.5312 -21.5781 30.7188 -21.5781
Q25.5938 -21.5781 20.7969 -20.7969
Q16.0156 -20.0156 11.1875 -18.4062
L11.1875 -4.78125
Q15.7656 -7.42188 20.1562 -8.71875
Q24.5625 -10.0156 29 -10.0156
Q37.5938 -10.0156 41.5938 -6.25
Q45.6094 -2.48438 45.6094 5.51562
z

M34.0781 43.3125
Q28.6562 43.3125 25.625 39.2969
Q22.6094 35.2969 22.6094 27.9844
Q22.6094 20.4531 25.5312 16.5781
Q28.4688 12.7031 34.0781 12.7031
Q39.5469 12.7031 42.5781 16.7031
Q45.6094 20.7031 45.6094 27.9844
Q45.6094 35.2969 42.5781 39.2969
Q39.5469 43.3125 34.0781 43.3125" id="BitstreamVeraSans-Bold-67"/>
     <path d="
M9.1875 72.9062
L40.375 72.9062
Q54.2969 72.9062 61.7344 66.7188
Q69.1875 60.5469 69.1875 49.125
Q69.1875 37.6406 61.7344 31.4688
Q54.2969 25.2969 40.375 25.2969
L27.9844 25.2969
L27.9844 0
L9.1875 0
z

M27.9844 59.2812
L27.9844 38.9219
L38.375 38.9219
Q43.8438 38.9219 46.8281 41.5781
Q49.8125 44.2344 49.8125 49.125
Q49.8125 54 46.8281 56.6406
Q43.8438 59.2812 38.375 59.2812
z
" id="BitstreamVeraSans-Bold-50"/>
    </defs>
    <g transform="translate(88.4227012019 324.678613826)scale(0.15 -0.15)">
     <use xlink:href="#BitstreamVeraSans-Bold-50"/>
     <use x="70.666015625" xlink:href="#BitstreamVeraSans-Bold-61"/>
     <use x="138.146484375" xlink:href="#BitstreamVeraSans-Bold-72"/>
     <use x="187.462890625" xlink:href="#BitstreamVeraSans-Bold-61"/>
     <use x="254.943359375" xlink:href="#BitstreamVeraSans-Bold-67"/>
     <use x="326.525390625" xlink:href="#BitstreamVeraSans-Bold-75"/>
     <use x="397.716796875" xlink:href="#BitstreamVeraSans-Bold-61"/>
     <use x="462.072265625" xlink:href="#BitstreamVeraSans-Bold-79"/>
    </g>
   </g>
   <g id="text_8">
    <!-- 9.9% -->
    <defs>
     <path d="
M10.0156 1.60938
L10.0156 15.0938
Q14.5 12.9844 18.5938 11.9375
Q22.7031 10.8906 26.7031 10.8906
Q35.1094 10.8906 39.7969 15.5469
Q44.4844 20.2188 45.3125 29.3906
Q42 26.9531 38.2344 25.7344
Q34.4688 24.5156 30.0781 24.5156
Q18.8906 24.5156 12.0312 31.0312
Q5.17188 37.5469 5.17188 48.1875
Q5.17188 59.9688 12.8125 67.0469
Q20.4531 74.125 33.2969 74.125
Q47.5625 74.125 55.375 64.5
Q63.1875 54.8906 63.1875 37.3125
Q63.1875 19.2344 54.0469 8.90625
Q44.9219 -1.42188 29 -1.42188
Q23.875 -1.42188 19.1875 -0.65625
Q14.5 0.09375 10.0156 1.60938
M33.2031 36.7188
Q38.1406 36.7188 40.625 39.9062
Q43.1094 43.1094 43.1094 49.5156
Q43.1094 55.8594 40.625 59.0781
Q38.1406 62.3125 33.2031 62.3125
Q28.2656 62.3125 25.7812 59.0781
Q23.2969 55.8594 23.2969 49.5156
Q23.2969 43.1094 25.7812 39.9062
Q28.2656 36.7188 33.2031 36.7188" id="BitstreamVeraSans-Bold-39"/>
    </defs>
    <g transform="translate(271.569378212 370.497283678)scale(0.15 -0.15)">
     <use xlink:href="#BitstreamVeraSans-Bold-39"/>
     <use x="69.580078125" xlink:href="#BitstreamVeraSans-Bold-2e"/>
     <use x="107.568359375" xlink:href="#BitstreamVeraSans-Bold-39"/>
     <use x="177.1484375" xlink:href="#BitstreamVeraSans-Bold-25"/>
    </g>
   </g>
   <g id="text_9">
    <!-- Mexico -->
    <defs>
     <path d="
M22.2188 27.9844
L2.48438 54.6875
L21 54.6875
L32.1719 38.4844
L43.5 54.6875
L62.0156 54.6875
L42.2812 28.0781
L62.9844 0
L44.4844 0
L32.1719 17.2812
L20.0156 0
L1.51562 0
z
" id="BitstreamVeraSans-Bold-78"/>
     <path d="
M9.1875 72.9062
L33.1094 72.9062
L49.7031 33.8906
L66.4062 72.9062
L90.2812 72.9062
L90.2812 0
L72.5156 0
L72.5156 53.3281
L55.7188 14.0156
L43.7969 14.0156
L27 53.3281
L27 0
L9.1875 0
z
" id="BitstreamVeraSans-Bold-4d"/>
     <path d="
M34.4219 43.5
Q28.6094 43.5 25.5625 39.3281
Q22.5156 35.1562 22.5156 27.2969
Q22.5156 19.4375 25.5625 15.25
Q28.6094 11.0781 34.4219 11.0781
Q40.1406 11.0781 43.1562 15.25
Q46.1875 19.4375 46.1875 27.2969
Q46.1875 35.1562 43.1562 39.3281
Q40.1406 43.5 34.4219 43.5
M34.4219 56
Q48.5312 56 56.4688 48.375
Q64.4062 40.7656 64.4062 27.2969
Q64.4062 13.8125 56.4688 6.1875
Q48.5312 -1.42188 34.4219 -1.42188
Q20.2656 -1.42188 12.2812 6.1875
Q4.29688 13.8125 4.29688 27.2969
Q4.29688 40.7656 12.2812 48.375
Q20.2656 56 34.4219 56" id="BitstreamVeraSans-Bold-6f"/>
     <path d="
M52.5938 52.9844
L52.5938 38.7188
Q49.0312 41.1562 45.4375 42.3281
Q41.8438 43.5 37.9844 43.5
Q30.6719 43.5 26.5938 39.2344
Q22.5156 34.9688 22.5156 27.2969
Q22.5156 19.625 26.5938 15.3438
Q30.6719 11.0781 37.9844 11.0781
Q42.0938 11.0781 45.7812 12.2969
Q49.4688 13.5312 52.5938 15.9219
L52.5938 1.60938
Q48.4844 0.09375 44.2656 -0.65625
Q40.0469 -1.42188 35.7969 -1.42188
Q21 -1.42188 12.6406 6.17188
Q4.29688 13.7656 4.29688 27.2969
Q4.29688 40.8281 12.6406 48.4062
Q21 56 35.7969 56
Q40.0938 56 44.2656 55.25
Q48.4375 54.5 52.5938 52.9844" id="BitstreamVeraSans-Bold-63"/>
    </defs>
    <g transform="translate(179.745247287 636.012664874)scale(0.15 -0.15)">
     <use xlink:href="#BitstreamVeraSans-Bold-4d"/>
     <use x="99.51171875" xlink:href="#BitstreamVeraSans-Bold-65"/>
     <use x="167.333984375" xlink:href="#BitstreamVeraSans-Bold-78"/>
     <use x="231.8359375" xlink:href="#BitstreamVeraSans-Bold-69"/>
     <use x="266.11328125" xlink:href="#BitstreamVeraSans-Bold-63"/>
     <use x="325.390625" xlink:href="#BitstreamVeraSans-Bold-6f"/>
    </g>
   </g>
   <g id="text_10">
    <!-- 26.5% -->
    <defs>
     <path d="
M10.5938 72.9062
L57.3281 72.9062
L57.3281 59.0781
L25.5938 59.0781
L25.5938 47.7969
Q27.7344 48.3906 29.9062 48.7031
Q32.0781 49.0312 34.4219 49.0312
Q47.75 49.0312 55.1719 42.3594
Q62.5938 35.6875 62.5938 23.7812
Q62.5938 11.9688 54.5156 5.26562
Q46.4375 -1.42188 32.0781 -1.42188
Q25.875 -1.42188 19.7969 -0.21875
Q13.7188 0.984375 7.71875 3.42188
L7.71875 18.2188
Q13.6719 14.7969 19.0156 13.0781
Q24.3594 11.375 29.1094 11.375
Q35.9375 11.375 39.8594 14.7188
Q43.7969 18.0625 43.7969 23.7812
Q43.7969 29.5469 39.8594 32.8594
Q35.9375 36.1875 29.1094 36.1875
Q25.0469 36.1875 20.4531 35.125
Q15.875 34.0781 10.5938 31.8906
z
" id="BitstreamVeraSans-Bold-35"/>
     <path d="
M28.8125 13.8125
L60.8906 13.8125
L60.8906 0
L7.90625 0
L7.90625 13.8125
L34.5156 37.3125
Q38.0938 40.5312 39.7969 43.6094
Q41.5 46.6875 41.5 50
Q41.5 55.125 38.0625 58.25
Q34.625 61.375 28.9062 61.375
Q24.5156 61.375 19.2812 59.5
Q14.0625 57.625 8.10938 53.9062
L8.10938 69.9219
Q14.4531 72.0156 20.6562 73.1094
Q26.8594 74.2188 32.8125 74.2188
Q45.9062 74.2188 53.1562 68.4531
Q60.4062 62.7031 60.4062 52.3906
Q60.4062 46.4375 57.3281 41.2812
Q54.25 36.1406 44.3906 27.4844
z
" id="BitstreamVeraSans-Bold-32"/>
    </defs>
    <g transform="translate(305.270525509 540.251936522)scale(0.15 -0.15)">
     <use xlink:href="#BitstreamVeraSans-Bold-32"/>
     <use x="69.580078125" xlink:href="#BitstreamVeraSans-Bold-36"/>
     <use x="139.16015625" xlink:href="#BitstreamVeraSans-Bold-2e"/>
     <use x="177.1484375" xlink:href="#BitstreamVeraSans-Bold-35"/>
     <use x="246.728515625" xlink:href="#BitstreamVeraSans-Bold-25"/>
    </g>
   </g>
   <g id="text_11">
    <!-- Ecuador -->
    <defs>
     <path d="
M9.1875 72.9062
L59.9062 72.9062
L59.9062 58.6875
L27.9844 58.6875
L27.9844 45.125
L58.0156 45.125
L58.0156 30.9062
L27.9844 30.9062
L27.9844 14.2031
L60.9844 14.2031
L60.9844 0
L9.1875 0
z
" id="BitstreamVeraSans-Bold-45"/>
     <path d="
M45.6094 46.6875
L45.6094 75.9844
L63.1875 75.9844
L63.1875 0
L45.6094 0
L45.6094 7.90625
Q42 3.07812 37.6406 0.828125
Q33.2969 -1.42188 27.5938 -1.42188
Q17.4844 -1.42188 10.9844 6.60938
Q4.5 14.6562 4.5 27.2969
Q4.5 39.9375 10.9844 47.9688
Q17.4844 56 27.5938 56
Q33.25 56 37.625 53.7344
Q42 51.4688 45.6094 46.6875
M34.0781 11.2812
Q39.7031 11.2812 42.6562 15.375
Q45.6094 19.4844 45.6094 27.2969
Q45.6094 35.1094 42.6562 39.2031
Q39.7031 43.3125 34.0781 43.3125
Q28.5156 43.3125 25.5625 39.2031
Q22.6094 35.1094 22.6094 27.2969
Q22.6094 19.4844 25.5625 15.375
Q28.5156 11.2812 34.0781 11.2812" id="BitstreamVeraSans-Bold-64"/>
    </defs>
    <g transform="translate(485.209076858 716.894840313)scale(0.15 -0.15)">
     <use xlink:href="#BitstreamVeraSans-Bold-45"/>
     <use x="68.310546875" xlink:href="#BitstreamVeraSans-Bold-63"/>
     <use x="127.587890625" xlink:href="#BitstreamVeraSans-Bold-75"/>
     <use x="198.779296875" xlink:href="#BitstreamVeraSans-Bold-61"/>
     <use x="266.259765625" xlink:href="#BitstreamVeraSans-Bold-64"/>
     <use x="337.841796875" xlink:href="#BitstreamVeraSans-Bold-6f"/>
     <use x="406.54296875" xlink:href="#BitstreamVeraSans-Bold-72"/>
    </g>
   </g>
   <g id="text_12">
    <!-- 2.7% -->
    <g transform="translate(445.963473741 584.369486762)scale(0.15 -0.15)">
     <use xlink:href="#BitstreamVeraSans-Bold-32"/>
     <use x="69.580078125" xlink:href="#BitstreamVeraSans-Bold-2e"/>
     <use x="107.568359375" xlink:href="#BitstreamVeraSans-Bold-37"/>
     <use x="177.1484375" xlink:href="#BitstreamVeraSans-Bold-25"/>
    </g>
   </g>
   <g id="text_13">
    <!-- Argentina -->
    <defs>
     <path d="
M53.4219 13.2812
L24.0312 13.2812
L19.3906 0
L0.484375 0
L27.4844 72.9062
L49.9062 72.9062
L76.9062 0
L58.0156 0
z

M28.7188 26.8125
L48.6875 26.8125
L38.7188 55.8125
z
" id="BitstreamVeraSans-Bold-41"/>
     <path d="
M27.4844 70.2188
L27.4844 54.6875
L45.5156 54.6875
L45.5156 42.1875
L27.4844 42.1875
L27.4844 19
Q27.4844 15.1875 29 13.8438
Q30.5156 12.5 35.0156 12.5
L44 12.5
L44 0
L29 0
Q18.6562 0 14.3281 4.3125
Q10.0156 8.64062 10.0156 19
L10.0156 42.1875
L1.3125 42.1875
L1.3125 54.6875
L10.0156 54.6875
L10.0156 70.2188
z
" id="BitstreamVeraSans-Bold-74"/>
    </defs>
    <g transform="translate(577.265702923 687.429808084)scale(0.15 -0.15)">
     <use xlink:href="#BitstreamVeraSans-Bold-41"/>
     <use x="77.392578125" xlink:href="#BitstreamVeraSans-Bold-72"/>
     <use x="126.708984375" xlink:href="#BitstreamVeraSans-Bold-67"/>
     <use x="198.291015625" xlink:href="#BitstreamVeraSans-Bold-65"/>
     <use x="266.11328125" xlink:href="#BitstreamVeraSans-Bold-6e"/>
     <use x="337.3046875" xlink:href="#BitstreamVeraSans-Bold-74"/>
     <use x="385.107421875" xlink:href="#BitstreamVeraSans-Bold-69"/>
     <use x="419.384765625" xlink:href="#BitstreamVeraSans-Bold-6e"/>
     <use x="490.576171875" xlink:href="#BitstreamVeraSans-Bold-61"/>
    </g>
   </g>
   <g id="text_14">
    <!-- 7.8% -->
    <g transform="translate(496.084772617 568.329611228)scale(0.15 -0.15)">
     <use xlink:href="#BitstreamVeraSans-Bold-37"/>
     <use x="69.580078125" xlink:href="#BitstreamVeraSans-Bold-2e"/>
     <use x="107.568359375" xlink:href="#BitstreamVeraSans-Bold-38"/>
     <use x="177.1484375" xlink:href="#BitstreamVeraSans-Bold-25"/>
    </g>
   </g>
   <g id="text_15">
    <!-- Uruguay -->
    <defs>
     <path d="
M9.1875 72.9062
L27.9844 72.9062
L27.9844 29.2031
Q27.9844 20.1719 30.9375 16.2812
Q33.8906 12.4062 40.5781 12.4062
Q47.3125 12.4062 50.2656 16.2812
Q53.2188 20.1719 53.2188 29.2031
L53.2188 72.9062
L72.0156 72.9062
L72.0156 29.2031
Q72.0156 13.7188 64.25 6.14062
Q56.5 -1.42188 40.5781 -1.42188
Q24.7031 -1.42188 16.9375 6.14062
Q9.1875 13.7188 9.1875 29.2031
z
" id="BitstreamVeraSans-Bold-55"/>
    </defs>
    <g transform="translate(661.116305728 623.063458165)scale(0.15 -0.15)">
     <use xlink:href="#BitstreamVeraSans-Bold-55"/>
     <use x="81.201171875" xlink:href="#BitstreamVeraSans-Bold-72"/>
     <use x="130.517578125" xlink:href="#BitstreamVeraSans-Bold-75"/>
     <use x="201.708984375" xlink:href="#BitstreamVeraSans-Bold-67"/>
     <use x="273.291015625" xlink:href="#BitstreamVeraSans-Bold-75"/>
     <use x="344.482421875" xlink:href="#BitstreamVeraSans-Bold-61"/>
     <use x="408.837890625" xlink:href="#BitstreamVeraSans-Bold-79"/>
    </g>
   </g>
   <g id="text_16">
    <!-- 3.7% -->
    <defs>
     <path d="
M46.5781 39.3125
Q53.9531 37.4062 57.7812 32.6875
Q61.625 27.9844 61.625 20.7031
Q61.625 9.85938 53.3125 4.21875
Q45.0156 -1.42188 29.1094 -1.42188
Q23.4844 -1.42188 17.8438 -0.515625
Q12.2031 0.390625 6.6875 2.20312
L6.6875 16.7031
Q11.9688 14.0625 17.1562 12.7188
Q22.3594 11.375 27.3906 11.375
Q34.8594 11.375 38.8438 13.9531
Q42.8281 16.5469 42.8281 21.3906
Q42.8281 26.375 38.75 28.9375
Q34.6719 31.5 26.7031 31.5
L19.1875 31.5
L19.1875 43.6094
L27.0938 43.6094
Q34.1875 43.6094 37.6406 45.8281
Q41.1094 48.0469 41.1094 52.5938
Q41.1094 56.7812 37.7344 59.0781
Q34.375 61.375 28.2188 61.375
Q23.6875 61.375 19.0469 60.3438
Q14.4062 59.3281 9.8125 57.3281
L9.8125 71.0938
Q15.375 72.6562 20.8438 73.4375
Q26.3125 74.2188 31.5938 74.2188
Q45.7969 74.2188 52.8438 69.5469
Q59.9062 64.8906 59.9062 55.5156
Q59.9062 49.125 56.5312 45.0469
Q53.1719 40.9688 46.5781 39.3125" id="BitstreamVeraSans-Bold-33"/>
    </defs>
    <g transform="translate(541.821465056 533.252653317)scale(0.15 -0.15)">
     <use xlink:href="#BitstreamVeraSans-Bold-33"/>
     <use x="69.580078125" xlink:href="#BitstreamVeraSans-Bold-2e"/>
     <use x="107.568359375" xlink:href="#BitstreamVeraSans-Bold-37"/>
     <use x="177.1484375" xlink:href="#BitstreamVeraSans-Bold-25"/>
    </g>
   </g>
   <g id="text_17">
    <!-- Colombia -->
    <defs>
     <path d="
M37.5 11.2812
Q43.1094 11.2812 46.0625 15.375
Q49.0312 19.4844 49.0312 27.2969
Q49.0312 35.1094 46.0625 39.2031
Q43.1094 43.3125 37.5 43.3125
Q31.8906 43.3125 28.875 39.1875
Q25.875 35.0625 25.875 27.2969
Q25.875 19.5312 28.875 15.4062
Q31.8906 11.2812 37.5 11.2812
M25.875 46.6875
Q29.5 51.4688 33.8906 53.7344
Q38.2812 56 44 56
Q54.1094 56 60.5938 47.9688
Q67.0938 39.9375 67.0938 27.2969
Q67.0938 14.6562 60.5938 6.60938
Q54.1094 -1.42188 44 -1.42188
Q38.2812 -1.42188 33.8906 0.84375
Q29.5 3.125 25.875 7.90625
L25.875 0
L8.40625 0
L8.40625 75.9844
L25.875 75.9844
z
" id="BitstreamVeraSans-Bold-62"/>
     <path d="
M59.0781 45.6094
Q62.4062 50.6875 66.9688 53.3438
Q71.5312 56 77 56
Q86.4219 56 91.3594 50.1875
Q96.2969 44.3906 96.2969 33.2969
L96.2969 0
L78.7188 0
L78.7188 28.5156
Q78.7656 29.1562 78.7812 29.8281
Q78.8125 30.5156 78.8125 31.7812
Q78.8125 37.5938 77.0938 40.2031
Q75.3906 42.8281 71.5781 42.8281
Q66.6094 42.8281 63.8906 38.7188
Q61.1875 34.625 61.0781 26.8594
L61.0781 0
L43.5 0
L43.5 28.5156
Q43.5 37.5938 41.9375 40.2031
Q40.375 42.8281 36.375 42.8281
Q31.3438 42.8281 28.6094 38.7031
Q25.875 34.5781 25.875 26.9062
L25.875 0
L8.29688 0
L8.29688 54.6875
L25.875 54.6875
L25.875 46.6875
Q29.1094 51.3125 33.2812 53.6562
Q37.4531 56 42.4844 56
Q48.1406 56 52.4844 53.2656
Q56.8438 50.5312 59.0781 45.6094" id="BitstreamVeraSans-Bold-6d"/>
    </defs>
    <g transform="translate(710.937979916 547.426429179)scale(0.15 -0.15)">
     <use xlink:href="#BitstreamVeraSans-Bold-43"/>
     <use x="73.388671875" xlink:href="#BitstreamVeraSans-Bold-6f"/>
     <use x="142.08984375" xlink:href="#BitstreamVeraSans-Bold-6c"/>
     <use x="176.3671875" xlink:href="#BitstreamVeraSans-Bold-6f"/>
     <use x="245.068359375" xlink:href="#BitstreamVeraSans-Bold-6d"/>
     <use x="349.267578125" xlink:href="#BitstreamVeraSans-Bold-62"/>
     <use x="420.849609375" xlink:href="#BitstreamVeraSans-Bold-69"/>
     <use x="455.126953125" xlink:href="#BitstreamVeraSans-Bold-61"/>
    </g>
   </g>
   <g id="text_18">
    <!-- 6.1% -->
    <g transform="translate(568.960595579 491.932171598)scale(0.15 -0.15)">
     <use xlink:href="#BitstreamVeraSans-Bold-36"/>
     <use x="69.580078125" xlink:href="#BitstreamVeraSans-Bold-2e"/>
     <use x="107.568359375" xlink:href="#BitstreamVeraSans-Bold-31"/>
     <use x="177.1484375" xlink:href="#BitstreamVeraSans-Bold-25"/>
    </g>
   </g>
   <g id="text_19">
    <!-- El Salvador -->
    <defs>
     <path d="
M59.9062 70.6094
L59.9062 55.1719
Q53.9062 57.8594 48.1875 59.2188
Q42.4844 60.5938 37.4062 60.5938
Q30.6719 60.5938 27.4375 58.7344
Q24.2188 56.8906 24.2188 52.9844
Q24.2188 50.0469 26.3906 48.4062
Q28.5625 46.7812 34.2812 45.6094
L42.2812 44
Q54.4375 41.5469 59.5625 36.5625
Q64.7031 31.5938 64.7031 22.4062
Q64.7031 10.3594 57.5469 4.46875
Q50.3906 -1.42188 35.6875 -1.42188
Q28.7656 -1.42188 21.7812 -0.09375
Q14.7969 1.21875 7.8125 3.8125
L7.8125 19.6719
Q14.7969 15.9688 21.3125 14.0781
Q27.8281 12.2031 33.8906 12.2031
Q40.0469 12.2031 43.3125 14.25
Q46.5781 16.3125 46.5781 20.125
Q46.5781 23.5312 44.3594 25.3906
Q42.1406 27.25 35.5 28.7188
L28.2188 30.3281
Q17.2812 32.6719 12.2188 37.7969
Q7.17188 42.9219 7.17188 51.6094
Q7.17188 62.5 14.2031 68.3594
Q21.2344 74.2188 34.4219 74.2188
Q40.4375 74.2188 46.7812 73.3125
Q53.125 72.4062 59.9062 70.6094" id="BitstreamVeraSans-Bold-53"/>
     <path id="BitstreamVeraSans-Bold-20"/>
     <path d="
M1.51562 54.6875
L19 54.6875
L32.625 16.8906
L46.1875 54.6875
L63.7188 54.6875
L42.1875 0
L23 0
z
" id="BitstreamVeraSans-Bold-76"/>
    </defs>
    <g transform="translate(735.388004668 459.915946402)scale(0.15 -0.15)">
     <use xlink:href="#BitstreamVeraSans-Bold-45"/>
     <use x="68.310546875" xlink:href="#BitstreamVeraSans-Bold-6c"/>
     <use x="102.587890625" xlink:href="#BitstreamVeraSans-Bold-20"/>
     <use x="137.40234375" xlink:href="#BitstreamVeraSans-Bold-53"/>
     <use x="209.423828125" xlink:href="#BitstreamVeraSans-Bold-61"/>
     <use x="276.904296875" xlink:href="#BitstreamVeraSans-Bold-6c"/>
     <use x="311.181640625" xlink:href="#BitstreamVeraSans-Bold-76"/>
     <use x="376.3671875" xlink:href="#BitstreamVeraSans-Bold-61"/>
     <use x="443.84765625" xlink:href="#BitstreamVeraSans-Bold-64"/>
     <use x="515.4296875" xlink:href="#BitstreamVeraSans-Bold-6f"/>
     <use x="584.130859375" xlink:href="#BitstreamVeraSans-Bold-72"/>
    </g>
   </g>
   <g id="text_20">
    <!-- 3.7% -->
    <g transform="translate(582.333300842 444.199180992)scale(0.15 -0.15)">
     <use xlink:href="#BitstreamVeraSans-Bold-33"/>
     <use x="69.580078125" xlink:href="#BitstreamVeraSans-Bold-2e"/>
     <use x="107.568359375" xlink:href="#BitstreamVeraSans-Bold-37"/>
     <use x="177.1484375" xlink:href="#BitstreamVeraSans-Bold-25"/>
    </g>
   </g>
  </g>
 </g>
</svg>
